<svg width="40" height="40" viewBox="0 0 40 40" fill="none" xmlns="http://www.w3.org/2000/svg">
<g clip-path="url(#clip0_511_2210)">
<path fill-rule="evenodd" clip-rule="evenodd" d="M16.5992 15.4422C12.8611 17.6003 18.5647 28.2928 22.6551 25.9312C23.3815 27.1893 25.7213 31.242 26.4477 32.5C24.7219 33.4965 23.261 34.1246 21.2602 32.9808C15.7047 29.805 9.58933 19.2174 9.76365 12.9019C9.82408 10.7084 11.1164 9.84904 12.8068 8.87309C13.5332 10.1313 15.8728 14.184 16.5992 15.4422Z" fill="white"/>
<path fill-rule="evenodd" clip-rule="evenodd" d="M18.1669 15.2637C17.763 15.4969 17.2432 15.3577 17.01 14.9538L13.4346 8.76101C13.2014 8.35703 13.3406 7.83729 13.7445 7.60408L15.6237 6.51915C16.0276 6.28591 16.5474 6.42523 16.7807 6.82916L20.356 13.0219C20.5892 13.4258 20.45 13.9455 20.0461 14.1787L18.1669 15.2637Z" fill="white"/>
<path fill-rule="evenodd" clip-rule="evenodd" d="M27.9345 32.1815C27.5306 32.4147 27.0108 32.2755 26.7776 31.8715L23.2022 25.6787C22.969 25.2748 23.1082 24.755 23.5121 24.5219L25.3912 23.4369C25.7952 23.2037 26.315 23.343 26.5482 23.7469L30.1236 29.9396C30.3568 30.3436 30.2176 30.8634 29.8137 31.0965L27.9345 32.1815Z" fill="white"/>
<path d="M20 0L20.0003 0.00465804C25.5251 0.00474273 30.525 2.24206 34.1412 5.85868C37.7576 9.47509 39.9948 14.4747 39.995 19.9996H39.9996V20.0005H39.995C39.9949 25.5254 37.7576 30.5252 34.141 34.1414C30.5245 37.7578 25.5249 39.9951 20.0001 39.9952V39.9999H19.9991V39.9952C14.4743 39.9951 9.47444 37.7578 5.85823 34.1412C2.24181 30.5247 0.00455116 25.5252 0.0044139 20.0003H-0.000244141V19.9994H0.0044139C0.00449859 14.4745 2.24181 9.47468 5.85843 5.85847C9.47485 2.24206 14.4745 0.00479531 19.9993 0.00465804L20 0ZM20.0003 2.3855V2.39016H19.9993V2.3855C15.1407 2.38563 10.7382 4.35888 7.54884 7.5484C4.35904 10.7381 2.38573 15.1411 2.38573 19.9996H2.39039V20.0005H2.38573C2.38586 24.8591 4.3591 29.2617 7.54863 32.451C10.7384 35.6408 15.1414 37.6141 19.9998 37.6141V37.6095H20.0007V37.6141C24.8593 37.614 29.2619 35.6408 32.4512 32.4512C35.641 29.2615 37.6143 24.8585 37.6143 20H37.6097V19.9991H37.6143C37.6142 15.1405 35.641 10.7379 32.4515 7.54861C29.2617 4.35881 24.8587 2.3855 20.0003 2.3855Z" fill="white"/>
</g>
<defs>
<clipPath id="clip0_511_2210">
<rect width="40" height="40" fill="white"/>
</clipPath>
</defs>
</svg>
