<svg width="72" height="59" viewBox="0 0 72 59" fill="none" xmlns="http://www.w3.org/2000/svg">
<g clip-path="url(#clip0_40_131)">
<path d="M70.7806 21.3354L67.1736 17.7277C66.693 17.246 66.1393 17.0059 65.5134 17.0059C64.889 17.0059 64.3356 17.246 63.855 17.7277L35.5004 46.0883L7.14704 17.7285C6.66616 17.2467 6.11276 17.0066 5.4876 17.0066C4.86218 17.0066 4.30878 17.2467 3.82815 17.7285L0.221696 21.3364C-0.25994 21.8172 -0.5 22.3707 -0.5 22.9963C-0.5 23.6214 -0.259182 24.1749 0.221696 24.6557L33.8409 58.2845C34.3216 58.7655 34.8752 59.0059 35.5004 59.0059C36.1255 59.0059 36.6782 58.7655 37.1586 58.2845L70.7806 24.6557C71.2612 24.1747 71.5 23.6211 71.5 22.9963C71.5 22.3707 71.2612 21.8172 70.7806 21.3354Z" fill="#FFAE00"/>
</g>
<path d="M63.9205 3.50487L61.0149 0.584383C60.6277 0.194385 60.1817 0 59.6775 0C59.1745 0 58.7287 0.194385 58.3415 0.584383L35.5003 23.5429L12.6601 0.584997C12.2727 0.194999 11.8269 0.00061351 11.3233 0.00061351C10.8195 0.00061351 10.3737 0.194999 9.98657 0.584997L7.08137 3.50568C6.69338 3.89486 6.5 4.34297 6.5 4.8494C6.5 5.35541 6.69399 5.80352 7.08137 6.1927L34.1635 33.416C34.5507 33.8054 34.9967 34 35.5003 34C36.0039 34 36.4491 33.8054 36.8361 33.416L63.9205 6.1927C64.3076 5.80332 64.5 5.35521 64.5 4.8494C64.5 4.34297 64.3076 3.89486 63.9205 3.50487Z" fill="#FFAE00"/>
<defs>
<clipPath id="clip0_40_131">
<rect width="72" height="47" fill="white" transform="translate(0 12)"/>
</clipPath>
</defs>
</svg>
