<svg width="39" height="39" viewBox="0 0 39 39" fill="none" xmlns="http://www.w3.org/2000/svg">
<path fill-rule="evenodd" clip-rule="evenodd" d="M19.5 0C30.27 0 39 8.73004 39 19.5C39 30.27 30.27 39 19.5 39C8.73004 39 0 30.27 0 19.5C0 8.73004 8.73004 0 19.5 0Z" fill="#FBD051"/>
<path d="M12.469 30.6361H9.41592C9.06518 30.6361 8.92093 30.454 9.04236 30.1063L15.5051 11.6346H11.4067C11.0962 11.6346 10.9392 11.4888 10.9392 11.198V8.83092C10.9392 8.51961 11.0954 8.36377 11.4067 8.36377C17.0435 8.36377 22.6798 8.36377 28.3165 8.36377C28.6286 8.36377 28.7837 8.52039 28.7837 8.83092V11.198C28.7837 11.488 28.6278 11.6346 28.3165 11.6346H24.2247L30.6875 30.1063C30.7911 30.4598 30.6666 30.6361 30.3135 30.6361H27.2604C26.97 30.6361 26.7933 30.512 26.7306 30.2626L25.2046 25.559H14.5252L12.9988 30.2626C12.9188 30.5112 12.7378 30.6361 12.469 30.6361ZM19.0049 11.6346L15.584 22.1628H24.1454L20.7253 11.6346H19.0049Z" fill="black"/>
</svg>
