<svg width="143" height="76" viewBox="0 0 143 76" fill="none" xmlns="http://www.w3.org/2000/svg">
<path d="M76.0261 37.7186C76.0261 35.7464 76.0153 33.8045 75.719 32.0909H39.8544V49.2218H50.5001C50.5001 50.9341 45.5793 54.4543 38.1965 54.4543C30.0745 54.4543 20.8792 48.1135 20.6954 37.9118C20.5035 27.3425 29.7118 20.4301 38.1965 20.7311C45.0871 20.9755 47.7187 22.9376 51.5613 26.6934C51.5613 26.6934 73.9207 26.7103 74.5066 26.7103C73.84 24.1657 72.1889 20.321 69.3641 16.3409C69.1281 16.0097 68.8874 15.6757 68.6331 15.3444C62.9841 7.87783 53.169 0.297449 37.9185 0.281289C19.9997 0.256376 6.16978 12.1521 1.60906 26.717C1.55482 26.8927 1.50261 27.0685 1.44904 27.2456C1.44904 27.2537 1.44565 27.2658 1.44226 27.2725C0.505842 30.5314 0 33.9708 0 37.5226C0.0339036 40.9237 0.478719 44.1792 1.28698 47.251C4.16472 57.8775 11.6547 66.6477 21.5159 71.3516C21.5952 71.3886 21.6739 71.427 21.7553 71.462C21.8061 71.4889 21.8583 71.5084 21.9051 71.532C26.8815 73.7796 32.4715 75.0313 38.4067 75.0778C50.9917 74.9768 62.1229 68.8616 68.981 59.5029C69.1213 59.3097 76.0261 49.3915 76.0261 37.7186Z" fill="#EA232B"/>
<path d="M132.689 59.3404C132.689 59.3404 139.679 50.4767 139.705 38.6745C139.761 15.4964 123.41 0.537617 100.601 0.50395C87.3865 0.48375 75.2036 7.46284 68.9647 15.8364C63.4153 23.2862 62.5006 29.4929 62.5006 34.0076C62.2375 39.6246 62.7935 42.2809 62.7935 42.2809C63.5991 48.1295 65.8856 53.8824 69.3959 58.9001C76.039 68.3988 87.0692 75.2823 100.732 75.2823C109.799 75.2836 116.213 71.0544 117.372 70.443L119.775 73.2064H143L132.689 59.3404ZM118.551 43.0761L116.568 40.6568H93.0064L102.586 54.1585C92.6179 56.0983 83.1967 47.6877 83.3344 38.0537C83.4741 28.2102 91.474 20.8992 101.04 20.9632C111.542 21.0292 122.018 32.3351 118.551 43.0761Z" fill="#0A71FF"/>
<g opacity="0.5">
<path d="M74.5067 26.7163C73.8402 24.1718 72.1891 20.3224 69.3642 16.3443C69.2463 16.1753 69.1181 16.0063 68.9967 15.8359C68.9865 15.8494 68.975 15.8629 68.9649 15.8763C65.9847 19.8746 64.3438 23.5086 63.4609 26.7136C68.9059 26.715 74.2247 26.7163 74.5067 26.7163Z" fill="#EA232B"/>
<path d="M76.0262 37.7137C76.0262 35.7415 76.0153 33.7996 75.719 32.0859H62.5651C62.5217 32.0859 62.5014 33.4111 62.5014 34.0332C62.2383 39.6508 62.7943 42.289 62.7943 42.289C63.5964 48.1335 65.8809 53.8763 69.3851 58.8893C70.8837 56.5528 76.0262 47.7874 76.0262 37.7137Z" fill="#EA232B"/>
</g>
</svg>
