<svg width="100" height="100" viewBox="0 0 100 100" fill="none" xmlns="http://www.w3.org/2000/svg">
<path d="M8.30001 99.6C6.94001 99.1 6.14001 98.1 5.64001 96.76C5.06001 95.2 4.36001 93.68 3.72001 92.12C2.74001 89.72 4.18001 86.9 6.66001 86.24C7.34001 86.06 8.00001 85.86 8.76001 85.64C8.52001 84.96 8.32001 84.42 8.14001 83.88C7.04001 80.84 9.10001 77 12.22 76.18C14.16 75.66 14.02 75.92 13.36 74.08C12.2 70.84 14.18 67.06 17.5 66.18C19.36 65.7 19.2 65.84 18.52 64.2C17.88 62.66 17.98 61.3 18.8 59.88C19.8 58.14 20.68 56.36 21.54 54.56C21.74 54.12 21.8 53.5 21.66 53.04C20.56 49.58 19.44 46.12 18.26 42.68C17.34 40 17.52 37.44 18.86 34.94C19.66 33.46 20.4 31.96 21.18 30.48C21.68 29.52 22.42 29.26 23.24 29.68C24.06 30.1 24.24 30.84 23.76 31.84C23 33.34 22.26 34.84 21.46 36.3C20.5 38.04 20.38 39.82 21.02 41.7C22.28 45.42 23.48 49.16 24.74 52.88C25.04 53.74 24.98 54.46 24.54 55.26C23.44 57.3 22.4 59.38 21.32 61.42C21.04 61.94 20.98 62.36 21.2 62.96C22.4 66.12 21.28 68.22 18.02 69.1C16.72 69.44 15.6 71.6 16.06 72.88C17.2 76.12 16.18 78.1 12.88 79.06C11.52 79.46 10.44 81.6 10.9 82.9C12.04 86.04 10.96 88.14 7.76001 89C6.48001 89.34 6.06001 90.16 6.56001 91.38C7.20001 92.92 7.88001 94.46 8.48001 96.02C8.70001 96.6 8.96001 96.8 9.62001 96.64C11.14 96.24 12.7 95.9 14.24 95.66C15.08 95.52 15.5 95.1 15.86 94.38C21.7 83.04 27.58 71.74 33.4 60.4C33.92 59.36 34.6 58.78 35.72 58.46C39.4 57.42 43.06 56.28 46.74 55.2C48.56 54.68 49.84 53.58 50.7 51.92C52.88 47.68 55.08 43.46 57.26 39.22C58.94 35.94 57.86 32.58 54.6 30.86C49.8 28.32 44.98 25.78 40.16 23.26C39.92 23.14 39.66 23.02 39.34 22.88C39.34 24.54 39.34 26.08 39.34 27.76C40.22 27.76 41 27.66 41.74 27.78C45.22 28.32 47.92 31.46 48.1 35.16C48.26 38.44 45.94 41.66 42.72 42.58C39.34 43.56 35.74 42.06 34.06 38.96C32.36 35.82 33.02 31.82 35.72 29.56C36.42 28.98 36.52 28.46 36.48 27.6C36.36 25.78 36.44 23.94 36.52 22.1C36.54 21.54 36.46 21.22 35.92 20.98C33.02 19.58 29.66 20.62 28.08 23.44C27.84 23.86 27.66 24.3 27.4 24.72C26.92 25.52 26.18 25.72 25.42 25.3C24.7 24.92 24.48 24.22 24.82 23.4C26.86 18.42 31.72 16.3 36.76 18.2C36.88 18.24 37 18.26 37.18 18.3C39.64 10.66 44.44 5.15997 51.94 2.23997C57.82 -0.0400314 63.74 0.0799685 69.56 2.43997C81.86 7.37997 88.48 22.32 82.2 35.56C85.08 37.5 87.96 39.44 90.84 41.38C92.24 42.32 93.62 43.24 95.02 44.18C97.48 45.86 98.24 48.58 96.9 51C95.62 53.32 92.6 54.26 90 53.14C89.82 53.06 89.66 52.98 89.36 52.84C89.34 53.24 89.32 53.58 89.32 53.9C89.32 57.64 89.34 61.38 89.28 65.12C89.28 65.66 89.02 66.38 88.62 66.7C87.8 67.36 86.52 66.62 86.54 65.28C86.6 60.84 86.54 56.38 86.58 51.94C86.58 51.14 86.36 50.66 85.7 50.22C79.24 45.86 72.78 41.48 66.36 37.08C65.76 36.66 65.32 36.6 64.76 37.08C64.38 37.42 63.92 37.66 63.48 37.96C59.66 40.5 58.82 41.56 57.04 46.08C57.46 46.14 57.86 46.24 58.26 46.26C58.64 46.3 59.02 46.26 59.48 46.26C59.58 45.98 59.68 45.7 59.8 45.4C60.84 42.62 63.66 40.98 66.58 41.48C69.28 41.94 71.38 44.38 71.52 47.16C71.64 50.08 69.68 52.72 66.88 53.4C64.14 54.06 61.18 52.64 60 50C59.74 49.42 59.46 49.16 58.8 49.18C58.06 49.18 57.3 49.14 56.6 48.94C55.78 48.7 55.4 48.96 55.06 49.7C54.48 50.98 53.8 52.24 53.12 53.48C51.9 55.76 50.08 57.28 47.58 57.98C46.5 58.28 45.42 58.6 44.32 58.88C43.8 59 43.6 59.24 43.6 59.8C43.62 65.64 43.6 71.46 43.62 77.3C43.62 78.68 44.44 79.54 45.74 79.54C49.44 79.56 53.16 79.56 56.86 79.56C56.96 79.56 57.04 79.52 57.24 79.48C57.24 79.14 57.24 78.8 57.24 78.46C57.24 74.02 57.24 69.56 57.24 65.12C57.24 63.5 57.68 63.06 59.32 63.06C63.26 63.06 67.18 63.06 71.12 63.06C72.76 63.06 73.16 63.46 73.16 65.14C73.16 69.56 73.16 73.98 73.16 78.38C73.16 78.76 73.16 79.14 73.16 79.58C76.98 79.58 80.7 79.6 84.4 79.56C85.6 79.54 86.38 78.58 86.4 77.26C86.42 75.84 86.4 74.42 86.42 73C86.44 71.92 86.94 71.36 87.88 71.38C88.78 71.4 89.3 71.94 89.3 72.96C89.32 74.48 89.34 76 89.3 77.5C89.2 80.34 87.02 82.46 84.16 82.46C71.4 82.46 58.62 82.46 45.86 82.44C42.88 82.44 40.74 80.32 40.72 77.32C40.68 71.96 40.72 66.62 40.7 61.26C40.7 60.88 40.7 60.5 40.7 59.96C39.2 60.44 37.8 60.84 36.42 61.34C36.12 61.44 35.9 61.88 35.74 62.2C29.94 73.4 24.12 84.6 18.36 95.84C17.56 97.4 16.48 98.24 14.76 98.54C13.1 98.82 11.46 99.3 9.80001 99.68C9.32001 99.6 8.80001 99.6 8.30001 99.6ZM39.76 19.7C43.04 21.42 46.18 23.06 49.3 24.74C52.08 26.22 54.82 27.78 57.6 29.26C57.82 29.38 58.26 29.28 58.5 29.14C59.78 28.34 61.04 27.5 62.3 26.66C64.8 25 66.56 25 69.08 26.7C72.32 28.86 75.54 31.04 78.78 33.22C79.06 33.42 79.36 33.58 79.76 33.84C82.86 26.04 82.36 18.7 77.36 12.06C72.06 5.01997 64.76 2.21997 56.12 4.01997C47.6 5.75997 42.34 11.34 39.76 19.7ZM61.12 35.94C62.08 35.32 63.08 34.64 64.1 33.98C65.52 33.04 65.66 33.04 67.02 33.96C68.34 34.84 69.64 35.72 70.94 36.6C77.6 41.08 84.24 45.56 90.92 50.02C91.46 50.38 92.24 50.62 92.88 50.58C93.76 50.52 94.38 49.88 94.56 48.96C94.76 47.96 94.4 47.2 93.56 46.64C90 44.26 86.44 41.86 82.9 39.48C77.66 35.96 72.42 32.44 67.18 28.9C66.4 28.38 65.58 28.08 64.74 28.58C63.06 29.6 61.44 30.7 59.92 31.7C60.36 33.16 60.72 34.5 61.12 35.94ZM60.24 65.92C60.24 70.46 60.24 74.96 60.24 79.4C63.62 79.4 66.92 79.4 70.18 79.4C70.18 74.86 70.18 70.4 70.18 65.92C66.84 65.92 63.56 65.92 60.24 65.92ZM43.92 38.38C45.32 36.78 45.52 34.62 44.48 32.82C43.52 31.14 41.84 30.32 39.98 30.66C40.74 33.48 42.04 36.02 43.92 38.38ZM41.02 39.78C39.72 37.26 38.42 34.72 37.12 32.2C35.9 33.28 35.54 35.78 36.64 37.62C37.66 39.3 39.52 40.2 41.02 39.78ZM68.58 47.86C66.64 48.32 64.78 48.74 62.84 49.18C63.8 50.32 64.9 50.8 66.24 50.46C67.56 50.14 68.3 49.24 68.58 47.86ZM67.6 45.1C65.8 43.62 63.46 44.16 62.64 46.22C64.34 45.86 65.9 45.5 67.6 45.1Z" fill="white"/>
<path d="M13.34 91.8399C12.42 91.8199 11.76 90.8999 12.02 89.9999C12.12 89.6599 12.32 89.3599 12.48 89.0399C17.28 79.7799 22.08 70.5399 26.86 61.2799C27 60.9999 27.14 60.6999 27.34 60.4399C27.84 59.8399 28.48 59.6999 29.16 60.0799C29.82 60.4599 30.08 61.0599 29.8 61.7999C29.72 62.0399 29.6 62.2799 29.48 62.4999C24.64 71.8399 19.8 81.1799 14.96 90.4999C14.62 91.2599 14.22 91.8399 13.34 91.8399Z" fill="white"/>
</svg>
