<svg width="17" height="17" viewBox="0 0 17 17" fill="none" xmlns="http://www.w3.org/2000/svg">
<g clip-path="url(#clip0_149_553)">
<path d="M16.0291 8.30429C16.0291 12.7223 12.4411 16.3039 8.01509 16.3039C3.58907 16.3039 0.000976562 12.7223 0.000976562 8.30429C0.000976562 3.88629 3.58897 0.304688 8.01509 0.304688C12.4411 0.304688 16.0291 3.88619 16.0291 8.30429Z" fill="url(#paint0_linear_149_553)"/>
<path d="M16.0291 8.30429C16.0291 12.7223 12.4411 16.3039 8.01509 16.3039C3.58907 16.3039 0.000976562 12.7223 0.000976562 8.30429C0.000976562 3.88629 3.58897 0.304688 8.01509 0.304688C12.4411 0.304688 16.0291 3.88619 16.0291 8.30429Z" fill="url(#paint1_radial_149_553)"/>
<path d="M16.0291 8.30429C16.0291 12.7223 12.4411 16.3039 8.01509 16.3039C3.58907 16.3039 0.000976562 12.7223 0.000976562 8.30429C0.000976562 3.88629 3.58897 0.304688 8.01509 0.304688C12.4411 0.304688 16.0291 3.88619 16.0291 8.30429Z" fill="url(#paint2_radial_149_553)" fill-opacity="0.5"/>
<path d="M7.31446 4.16645C7.31442 4.07484 7.33246 3.98412 7.36755 3.89947C7.40265 3.81483 7.45411 3.73791 7.51899 3.67312C7.58387 3.60833 7.6609 3.55693 7.74569 3.52187C7.83047 3.4868 7.92135 3.46875 8.01312 3.46875C8.68855 3.46875 9.23604 4.01525 9.23604 4.68935V6.43575C9.23604 6.44901 9.23865 6.46215 9.24374 6.4744C9.24882 6.48665 9.25628 6.49779 9.26567 6.50717C9.27507 6.51655 9.28622 6.52399 9.2985 6.52906C9.31078 6.53414 9.32393 6.53675 9.33722 6.53675H11.1358C12.1296 6.53675 12.8621 7.46405 12.6302 8.42875L12.1722 10.3335C12.0513 10.836 11.7645 11.2834 11.3578 11.6034C10.9512 11.9234 10.4485 12.0974 9.9307 12.0975H6.93086C6.77803 12.0975 6.63147 12.0368 6.5234 11.929C6.41533 11.8211 6.35462 11.6748 6.35462 11.5223V8.03865C6.35462 7.62185 6.4518 7.21085 6.63853 6.83815L6.92465 6.26695C7.18139 5.75437 7.31493 5.18912 7.31466 4.61605L7.31446 4.16645ZM4.37474 7.30025C4.17096 7.30028 3.97555 7.3811 3.83147 7.52493C3.68739 7.66877 3.60645 7.86385 3.60645 8.06725V11.3271C3.60645 11.5305 3.6874 11.7256 3.8315 11.8694C3.9756 12.0132 4.17105 12.0941 4.37484 12.0941H5.14323C5.24512 12.0941 5.34284 12.0536 5.41489 11.9817C5.48695 11.9098 5.52742 11.8123 5.52742 11.7106V7.68375C5.52742 7.63338 5.51748 7.5835 5.49817 7.53697C5.47885 7.49043 5.45055 7.44815 5.41486 7.41254C5.37917 7.37693 5.33681 7.34868 5.29018 7.32941C5.24356 7.31015 5.19359 7.30024 5.14313 7.30025H4.37474Z" fill="white"/>
</g>
<defs>
<linearGradient id="paint0_linear_149_553" x1="2.40323" y1="2.70459" x2="13.6026" y2="13.9243" gradientUnits="userSpaceOnUse">
<stop stop-color="#02ADFC"/>
<stop offset="0.5" stop-color="#0866FF"/>
<stop offset="1" stop-color="#2B7EFF"/>
</linearGradient>
<radialGradient id="paint1_radial_149_553" cx="0" cy="0" r="1" gradientUnits="userSpaceOnUse" gradientTransform="translate(8.01499 8.30419) rotate(90) scale(7.99958 8.01409)">
<stop offset="0.5618" stop-color="#0866FF" stop-opacity="0"/>
<stop offset="1" stop-color="#0866FF" stop-opacity="0.1"/>
</radialGradient>
<radialGradient id="paint2_radial_149_553" cx="0" cy="0" r="1" gradientUnits="userSpaceOnUse" gradientTransform="translate(6.41026 6.70432) rotate(44.9481) scale(10.191 10.191)">
<stop offset="0.3143" stop-color="#02ADFC"/>
<stop offset="1" stop-color="#02ADFC" stop-opacity="0"/>
</radialGradient>
<clipPath id="clip0_149_553">
<rect width="16.029" height="16" fill="white" transform="translate(0 0.304688)"/>
</clipPath>
</defs>
</svg>
