<svg width="600" height="100" viewBox="0 0 600 100" fill="none" xmlns="http://www.w3.org/2000/svg">
<path d="M562.404 0L562.197 0.0312305L536.443 1.49906L536.236 1.53029V1.65522V6.62086V6.77701H536.443H539.714C540.748 6.77701 541.486 6.95316 541.992 7.43285C542.498 7.91254 542.778 8.74323 542.778 10.0874V90.787C542.778 91.889 542.632 92.5608 542.199 92.9419C541.766 93.3231 541.006 93.4728 539.714 93.4728H538.721H538.514V93.629V98.5946H538.721V98.7508H538.969H566.462H566.669V98.5946V93.629V93.4728H566.462H564.682C563.631 93.4728 563.056 93.3837 562.777 93.1605C562.498 92.9373 562.404 92.5206 562.404 91.7864V44.3785C562.404 41.354 562.753 38.6817 563.936 36.7895C565.12 34.8973 567.093 33.7602 570.561 33.7602C571.81 33.7602 572.78 33.914 573.501 34.1974C574.221 34.4807 574.71 34.8919 575.074 35.4778C575.803 36.6497 575.944 38.5014 575.944 41.0369V91.4116C575.944 92.3152 575.651 92.812 575.198 93.0981C574.746 93.3841 574.095 93.4728 573.211 93.4728H571.389H571.182V93.629V98.5946V98.7508H571.389H599.793H600V98.5946V93.629V93.4728H599.793H598.302C597.174 93.4728 596.497 93.3561 596.108 93.0356C595.719 92.7151 595.57 92.1394 595.57 91.1618V38.3198C595.57 33.8449 594.495 30.346 591.926 27.9825C589.357 25.619 585.284 24.4222 579.422 24.4222C571.996 24.4222 566.64 27.6414 562.404 32.5109V0.187383V0ZM561.99 0.343535V32.9794V33.5415L562.404 33.0731C566.65 28.0241 571.955 24.7345 579.422 24.7345C585.207 24.7345 589.118 25.9228 591.595 28.2011C594.071 30.4795 595.156 33.8833 595.156 38.3198V91.1618C595.156 92.1659 595.305 92.832 595.818 93.2542C596.331 93.6765 597.134 93.7851 598.302 93.7851H599.586V98.4385H571.596V93.7851H573.211C574.133 93.7851 574.913 93.7115 575.488 93.3479C576.064 92.9843 576.358 92.3649 576.358 91.4116V41.0369C576.358 38.4935 576.238 36.625 575.447 35.3529C575.051 34.7168 574.51 34.232 573.708 33.9163C572.905 33.6006 571.854 33.4478 570.561 33.4478C566.969 33.4478 564.799 34.658 563.564 36.6334C562.328 38.6087 561.99 41.3368 561.99 44.3785V91.7864C561.99 92.5382 562.069 93.0454 562.487 93.3791C562.905 93.7128 563.599 93.7851 564.682 93.7851H566.255V98.4385H538.969V93.7851H539.714C541.05 93.7851 541.978 93.6461 542.53 93.1605C543.082 92.675 543.234 91.9126 543.234 90.787V10.0874C543.234 8.70937 542.925 7.81662 542.323 7.24547C541.72 6.67432 540.813 6.46471 539.714 6.46471H536.65V1.8426L561.99 0.343535ZM426.836 91.2911C421.578 91.2911 421.092 88.6877 421.092 79.4025C421.092 63.0657 422.568 60.8371 434.057 56.0061V82.2497C434.057 87.4545 432.908 91.2911 426.836 91.2911ZM115.461 55.0228C115.949 32.9865 116.938 30.634 122.846 30.634C129.411 30.634 128.75 33.4812 128.75 55.0228H115.461ZM122.846 99.8327C138.931 99.8327 147.137 94.63 145.163 75.8168H138.274C138.762 91.6598 135.315 93.1479 127.606 93.1479C116.281 93.1479 115.46 88.6877 115.46 62.4471C115.46 61.9524 115.46 61.2099 115.46 60.2195H146.803C146.803 33.7301 140.073 24.5728 122.845 24.5728C106.92 24.5728 94.6154 37.3198 94.6154 62.695C94.6167 90.5446 105.942 99.8327 122.846 99.8327ZM239.805 99.8327C253.914 99.8327 261.792 92.6492 261.792 81.7551C261.792 70.3692 256.545 65.4212 245.709 56.3809C235.374 47.8392 231.435 44.6223 231.435 37.5677C231.435 33.4812 233.239 30.8828 239.476 30.8828C245.709 30.8828 249.323 32.7397 250.468 39.9162L251.617 46.8519H258.839V25.81H252.931C252.608 28.4074 252.608 29.8915 251.618 29.5177C250.146 28.5313 244.402 24.5718 236.195 24.5718C224.871 24.5718 214.695 30.0154 214.695 42.0229C214.695 53.2869 219.783 57.742 230.779 67.1542C240.299 75.3211 245.053 78.9108 245.053 85.5916C245.053 90.9153 243.088 93.8865 235.702 93.8865C229.462 93.8865 225.358 91.6589 223.394 82.2487L222.081 75.8148H214.859V98.5935H220.932C221.588 96.238 223.229 94.0094 224.707 94.7519C226.837 96.6108 231.762 99.8327 239.805 99.8327ZM374.593 99.8327C390.678 99.8327 398.883 94.63 396.909 75.8168H390.021C390.513 91.6598 387.067 93.1479 379.352 93.1479C368.028 93.1479 367.207 88.6877 367.207 62.4471C367.207 61.9524 367.207 61.2099 367.207 60.2195H398.549C398.549 33.7301 391.827 24.5728 374.593 24.5728C358.672 24.5728 346.363 37.3198 346.363 62.695C346.363 90.5446 357.693 99.8327 374.593 99.8327ZM418.63 99.8327C428.315 99.8327 433.073 94.63 435.7 90.9163C437.34 96.6098 439.469 99.8327 449.485 99.8327C460.97 99.8327 463.594 94.63 463.594 84.4824H457.692C457.692 91.7868 457.358 92.5293 455.23 92.5293C453.256 92.5293 453.256 91.9107 453.256 87.8213V42.7664C453.256 28.2805 442.921 24.5728 429.299 24.5728C411.901 24.5728 402.054 33.7301 408.62 42.8903C411.409 46.7259 416.826 47.8402 421.417 45.2429C426.181 42.5216 427.002 36.8231 414.857 32.247C416.497 31.1307 421.256 30.1393 424.54 30.1393C434.06 30.1393 434.06 32.7427 434.06 39.4275C434.06 40.4159 434.06 50.1958 434.06 52.0506C410.426 58.1198 402.221 61.4588 402.221 80.6498C402.218 95.4995 409.766 99.8327 418.63 99.8327ZM146.698 98.5955H176.568V93.6436H174.758C172.625 93.6436 172.296 93.2689 172.296 91.7868V44.3774C172.296 38.3112 173.609 33.6061 180.666 33.6061C185.754 33.6061 186.251 35.9587 186.251 41.0335V91.412C186.251 93.2689 185.097 93.6436 183.292 93.6436H181.488V98.5955H209.876V93.6436H208.404C206.107 93.6436 205.451 93.1479 205.451 91.1672V38.3112C205.451 29.3968 201.183 24.5718 189.536 24.5718C181.981 24.5718 176.237 27.9127 171.969 32.9855V24.9396L146.535 26.3007V31.2526H149.819C151.952 31.2526 153.102 31.9971 153.102 34.7184V90.7924C153.102 93.024 152.439 93.6436 149.819 93.6436H146.7V98.5955H146.698ZM501.561 83.6129C501.561 95.3766 503.694 99.8327 519.122 99.8327C529.129 99.8327 535.859 96.6098 535.859 85.8445V75.3221H528.806V86.9588C528.806 91.2921 527.986 93.025 524.703 93.025C521.42 93.025 520.764 91.2921 520.764 87.4545V31.2536H535.53V25.81H520.928V6.62101H514.2C506.65 23.8263 503.203 25.811 496.966 25.811H494.997V31.1307H501.562L501.561 83.6129ZM0.222552 98.5955H25.8314V93.6436H21.8923C18.2764 93.6436 16.6401 90.4206 16.6401 85.9644V23.9502L37.3148 98.4676H47.1619L67.8406 23.7033V87.2017C67.8406 91.6589 66.8561 93.6426 63.5729 93.6426H58.9779V98.5945H95.9006V93.6426H93.1102C89.8283 93.6426 88.8478 91.6589 88.8478 87.2017V13.058C88.8478 8.60277 89.8283 6.62101 93.1102 6.62101H95.9006V1.66911H65.0515L48.9665 62.8229L31.8984 1.66911H0.222552V6.62101H2.85391C6.13716 6.62101 8.10604 9.59216 8.10604 14.1743V85.9654C8.10604 90.4217 6.13716 93.6446 2.85391 93.6446H0.222552V98.5955ZM264.751 98.5955H302.002V93.6436H298.227C294.776 93.6436 293.797 92.7732 293.797 88.4409V52.5483H318.743V88.4409C318.743 92.7732 317.589 93.6436 314.307 93.6436H310.536V98.5955H347.623V93.6436H344.34C340.892 93.6436 339.913 92.7732 339.913 88.4409V11.8218C339.913 7.36155 340.892 6.62101 344.34 6.62101H347.623V1.66911H310.536V6.62101H314.307C317.589 6.62101 318.743 7.36155 318.743 11.8218V46.726H293.797V11.8218C293.797 7.36155 294.776 6.62101 298.227 6.62101H302.002V1.66911H264.751V6.62101H268.193C271.639 6.62101 272.624 7.36155 272.624 11.8218V90.9173C272.624 93.025 271.639 93.6446 268.193 93.6446H264.751V98.5955ZM465.787 98.5955H496.145V93.6436H492.205C490.072 93.6436 489.252 93.025 489.252 91.0402V0.185035L463.49 1.6681V6.62001H467.096C469.235 6.62001 470.055 7.1147 470.055 9.09446V91.2911C470.055 93.1469 469.721 93.6436 467.429 93.6436H465.788L465.787 98.5955ZM538.734 98.5955H566.471V93.6436H564.661C562.533 93.6436 562.2 93.2689 562.2 91.7868V44.3774C562.2 38.3112 563.514 33.6061 570.574 33.6061C575.658 33.6061 576.15 35.9587 576.15 41.0335V91.412C576.15 93.2689 575.002 93.6436 573.196 93.6436H571.397V98.5955H599.78V93.6436H598.304C596.011 93.6436 595.354 93.1479 595.354 91.1672V38.3112C595.354 29.3968 591.086 24.5718 579.433 24.5718C571.885 24.5718 566.472 27.9127 562.2 32.9855V0.185035L536.433 1.6681V6.62001H539.72C541.848 6.62001 543.003 7.36055 543.003 10.0858V90.7924C543.003 93.024 542.347 93.6436 539.72 93.6436H538.735V98.5955H538.734ZM210.373 28.2805C226.78 19.0013 230.063 12.0676 224.651 5.75356C221.698 2.28773 214.968 0.0611121 210.045 3.15518C204.131 6.86886 205.614 13.4268 216.61 17.0165C214.636 18.7514 210.045 22.2173 206.27 24.9396L210.373 28.2805ZM367.206 55.0228C367.703 32.9865 368.683 30.634 374.591 30.634C381.157 30.634 380.499 33.4812 380.499 55.0228H367.206ZM189.552 24.4222C182.139 24.4222 176.455 27.6266 172.203 32.4797V24.9532V24.7658L171.955 24.797L146.532 26.1399H146.325V26.2961V31.2617V31.4179H146.532H149.803C150.835 31.4179 151.574 31.5941 152.081 32.0737C152.587 32.5533 152.909 33.3846 152.909 34.7283V90.787C152.909 91.8889 152.721 92.5607 152.288 92.9419C151.854 93.3232 151.092 93.4728 149.803 93.4728H146.698H146.491V93.629V98.5946V98.7508H146.698H176.592H176.799V98.5946V93.629V93.4728H176.592H174.771C173.72 93.4728 173.146 93.3838 172.866 93.1605C172.586 92.9373 172.493 92.5206 172.493 91.7864V44.3785C172.493 41.3541 172.841 38.6817 174.025 36.7895C175.21 34.8973 177.184 33.7602 180.65 33.7602C181.9 33.7602 182.869 33.914 183.59 34.1974C184.31 34.4807 184.799 34.8919 185.163 35.4778C185.891 36.6496 186.033 38.5013 186.033 41.0369V91.4116C186.033 92.3152 185.78 92.8121 185.329 93.0981C184.877 93.384 184.183 93.4728 183.3 93.4728H181.478H181.271V93.629V98.5946V98.7508H181.478H209.882H210.089V98.5946V93.629V93.4728H209.882H208.391C207.263 93.4728 206.628 93.3561 206.238 93.0356C205.849 92.7151 205.659 92.1394 205.659 91.1618V38.3198C205.659 33.8449 204.584 30.346 202.015 27.9825C199.446 25.619 195.415 24.4222 189.552 24.4222ZM189.552 24.7345C195.337 24.7345 199.207 25.9228 201.684 28.2011C204.16 30.4795 205.245 33.8833 205.245 38.3198V91.1618C205.245 92.1659 205.394 92.832 205.907 93.2542C206.42 93.6765 207.223 93.7851 208.391 93.7851H209.675V98.4385H181.685V93.7851H183.3C184.221 93.7851 185.003 93.7116 185.577 93.3479C186.151 92.9843 186.447 92.3648 186.447 91.4116V41.0369C186.447 38.4936 186.367 36.6251 185.577 35.3529C185.182 34.7168 184.6 34.232 183.797 33.9163C182.994 33.6006 181.944 33.4478 180.65 33.4478C177.059 33.4478 174.889 34.658 173.653 36.6334C172.416 38.6087 172.079 41.3367 172.079 44.3785V91.7864C172.079 92.5383 172.158 93.0455 172.576 93.3791C172.994 93.7128 173.688 93.7851 174.771 93.7851H176.344V98.4385H146.905V93.7851H149.803C151.136 93.7851 152.067 93.646 152.619 93.1605C153.171 92.6751 153.323 91.9127 153.323 90.787V34.7283C153.323 33.3506 153.015 32.4261 152.412 31.8551C151.809 31.2841 150.9 31.1056 149.803 31.1056H146.739V26.4522L171.748 25.1093V32.9794V33.5415L172.162 33.0731C176.405 28.0272 182.08 24.7345 189.552 24.7345ZM122.849 24.4222C114.812 24.4222 107.697 27.6457 102.602 34.0412C97.5062 40.4367 94.4034 49.9726 94.4034 62.6796C94.4034 76.6212 97.2491 85.9422 102.229 91.7864C107.209 97.6305 114.345 100 122.849 100C130.921 100 137.075 98.6738 140.943 94.9719C144.81 91.27 146.362 85.223 145.373 75.7964V75.6402H145.166H138.293H138.044L138.086 75.8276C138.332 83.7413 137.572 88.054 135.85 90.3498C134.989 91.4977 133.897 92.129 132.537 92.5047C131.178 92.8804 129.528 92.9731 127.61 92.9731C124.798 92.9731 122.686 92.7133 121.068 91.9113C119.451 91.1093 118.31 89.7775 117.507 87.6015C115.902 83.2496 115.686 75.5503 115.686 62.4297C115.686 61.9727 115.686 61.2548 115.686 60.3685H146.822H147.029V60.2124C147.029 46.9575 145.347 38.0319 141.481 32.386C137.615 26.7401 131.513 24.4222 122.849 24.4222ZM122.849 24.7345C131.413 24.7345 137.303 26.985 141.108 32.5422C144.898 38.0755 146.601 46.9152 146.615 60.0562H115.479H115.272V60.2124C115.272 61.1998 115.272 61.938 115.272 62.4297C115.272 75.5528 115.457 83.2264 117.093 87.664C117.912 89.8827 119.098 91.3073 120.82 92.1612C122.542 93.015 124.761 93.3167 127.61 93.3167C129.546 93.3167 131.221 93.2151 132.662 92.817C134.102 92.4189 135.319 91.7102 136.222 90.5059C138.012 88.1213 138.725 83.7662 138.5 75.9838H144.959C145.907 85.2747 144.352 91.2049 140.611 94.7845C136.848 98.3861 130.86 99.6565 122.849 99.6565C114.447 99.6565 107.469 97.3908 102.56 91.6302C97.6516 85.8696 94.8175 76.5886 94.8175 62.6796C94.8175 50.0114 97.8946 40.5212 102.933 34.1974C107.971 27.8736 114.961 24.7345 122.849 24.7345ZM122.849 30.4809C121.353 30.4809 120.106 30.6334 119.122 31.2305C118.138 31.8276 117.456 32.8216 116.928 34.5097C115.871 37.8857 115.518 44.0098 115.272 55.0281V55.1843H115.479H128.77H128.977V55.0281C128.977 44.2606 129.141 38.1628 128.48 34.7283C128.149 33.011 127.616 31.9356 126.699 31.2929C125.782 30.6503 124.51 30.4809 122.849 30.4809ZM122.849 30.7933C124.47 30.7933 125.604 30.9785 126.409 31.5428C127.215 32.1071 127.741 33.0728 128.066 34.7595C128.711 38.1126 128.564 44.2232 128.563 54.872H115.686C115.932 43.9806 116.312 37.8917 117.342 34.6034C117.86 32.9494 118.535 32.0127 119.412 31.4803C120.289 30.948 121.39 30.7933 122.849 30.7933ZM374.591 30.4809C373.096 30.4809 371.849 30.6332 370.865 31.2305C369.881 31.8278 369.198 32.8526 368.67 34.5409C367.614 37.9176 367.262 44.0083 367.014 55.0281L366.973 55.1843H367.221H380.512H380.719V55.0281C380.719 44.2586 380.884 38.1634 380.222 34.7283C379.891 33.0108 379.359 31.9356 378.442 31.2929C377.524 30.6503 376.253 30.4809 374.591 30.4809ZM374.591 30.7933C376.212 30.7933 377.346 30.9784 378.152 31.5428C378.958 32.1071 379.483 33.0726 379.808 34.7595C380.455 38.113 380.307 44.2213 380.305 54.872H367.428C367.676 43.9791 368.055 37.8924 369.084 34.6034C369.602 32.949 370.277 32.0128 371.155 31.4803C372.032 30.9479 373.133 30.7933 374.591 30.7933ZM213.94 1.62399C212.535 1.80073 211.182 2.23813 209.923 3.02936C206.913 4.91993 205.748 7.56925 206.777 10.1811C207.789 12.7497 210.889 15.2801 216.258 17.0831C214.237 18.8377 209.811 22.1591 206.114 24.8282L205.99 24.9219L206.114 25.0468L210.213 28.3885L210.337 28.4822L210.503 28.4197C218.721 23.7703 223.686 19.6827 225.906 15.9588C228.126 12.2348 227.565 8.8459 224.829 5.65272C223.324 3.88857 220.884 2.45828 218.163 1.8426C216.803 1.53475 215.344 1.44724 213.94 1.62399ZM214.023 1.93629C215.357 1.76896 216.732 1.85925 218.039 2.1549C220.652 2.74621 223.008 4.14241 224.457 5.8401C227.133 8.96397 227.662 12.1927 225.492 15.8339C223.336 19.4508 218.469 23.451 210.379 28.045L206.57 24.9219C210.312 22.2157 214.798 18.8346 216.755 17.1143L216.962 16.9582L216.714 16.8645C211.256 15.0821 208.174 12.5821 207.191 10.0874C206.208 7.59277 207.269 5.10231 210.172 3.2792C211.375 2.52289 212.688 2.10362 214.023 1.93629ZM489.449 0L489.242 0.0312305L463.488 1.49906L463.281 1.53029V1.65522V6.62086V6.77701H463.488H467.09C468.137 6.77701 468.832 6.8904 469.243 7.21424C469.654 7.53808 469.864 8.11471 469.864 9.08807V91.2867C469.864 92.208 469.759 92.7689 469.45 93.0668C469.295 93.2158 469.069 93.3102 468.746 93.3791C468.423 93.4481 467.985 93.4728 467.421 93.4728H465.806H465.558V93.629V98.5946H465.806V98.7508H466.013H496.156H496.363V98.5946V93.629V93.4728H496.156H492.223C491.183 93.4728 490.528 93.3289 490.111 92.9731C489.694 92.6174 489.449 92.0111 489.449 91.0369V0.187383V0ZM489.035 0.343535V91.0369C489.035 92.0443 489.253 92.7427 489.78 93.1918C490.306 93.6408 491.129 93.7851 492.223 93.7851H495.949V98.4385H466.013V93.7851H467.421C468.006 93.7851 468.486 93.7735 468.87 93.6914C469.255 93.6094 469.566 93.4613 469.781 93.2542C470.211 92.8401 470.278 92.2222 470.278 91.2867V9.08807C470.278 8.08167 470.064 7.41408 469.533 6.99563C469.002 6.57718 468.18 6.46471 467.09 6.46471H463.695V1.8426L489.035 0.343535ZM264.537 1.49906V1.65522V6.62086V6.77701H264.744H268.18C269.032 6.77701 269.749 6.83372 270.292 6.9644C270.835 7.09508 271.221 7.30877 271.534 7.65147C272.16 8.33685 272.404 9.58642 272.404 11.8051V90.9119C272.404 91.9449 272.186 92.5657 271.575 92.9419C270.965 93.3181 269.887 93.4728 268.18 93.4728H264.744H264.537V93.629V98.5946V98.7508H264.744H302.008H302.215V98.5946V93.629V93.4728H302.008H298.24C297.391 93.4728 296.711 93.4253 296.17 93.2854C295.629 93.1456 295.2 92.9186 294.886 92.5671C294.259 91.8641 294.017 90.6018 294.017 88.4447V52.6858H318.529V88.4447C318.529 90.6002 318.225 91.8623 317.576 92.5671C317.252 92.9196 316.869 93.1456 316.334 93.2854C315.8 93.4253 315.114 93.4728 314.305 93.4728H310.538H310.331V93.629V98.5946V98.7508H310.538H347.636H347.843V98.5946V93.629V93.4728H347.636H344.324C343.474 93.4728 342.795 93.4253 342.254 93.2854C341.712 93.1456 341.325 92.9186 341.012 92.5671C340.385 91.8642 340.142 90.6018 340.142 88.4447V11.8051C340.142 9.58632 340.388 8.33675 341.012 7.65147C341.324 7.30882 341.712 7.09505 342.254 6.9644C342.796 6.83375 343.472 6.77701 344.324 6.77701H347.636H347.843V6.62086V1.65522V1.49906H347.636H310.538H310.331V1.65522V6.62086V6.77701H310.538H314.305C315.116 6.77701 315.799 6.83375 316.334 6.9644C316.869 7.09505 317.253 7.30783 317.576 7.65147C318.223 8.33874 318.529 9.58785 318.529 11.8051V46.5646H294.017V11.8051C294.017 9.58637 294.262 8.33682 294.886 7.65147C295.199 7.30879 295.587 7.09505 296.129 6.9644C296.67 6.83375 297.39 6.77701 298.24 6.77701H302.008H302.215V6.62086V1.65522V1.49906H302.008H264.744H264.537ZM264.951 1.8426H301.801V6.46471H298.24C297.37 6.46471 296.616 6.50466 296.004 6.65209C295.393 6.79952 294.919 7.06472 294.555 7.46409C293.827 8.26281 293.603 9.56866 293.603 11.8051V46.7208V46.877H293.81H318.736H318.943V46.7208V11.8051C318.943 9.56718 318.698 8.26088 317.949 7.46409C317.575 7.06568 317.062 6.79952 316.458 6.65209C315.855 6.50466 315.137 6.46471 314.305 6.46471H310.745V1.8426H347.429V6.46471H344.324C343.452 6.46471 342.741 6.50466 342.13 6.65209C341.518 6.79952 341.003 7.06469 340.639 7.46409C339.912 8.26288 339.687 9.56871 339.687 11.8051V88.4447C339.687 90.6199 339.914 91.9412 340.639 92.7545C341.001 93.1612 341.518 93.4397 342.13 93.5978C342.741 93.7558 343.45 93.7851 344.324 93.7851H347.429V98.4385H310.745V93.7851H314.305C315.139 93.7851 315.854 93.7558 316.458 93.5978C317.063 93.4397 317.576 93.1602 317.949 92.7545C318.696 91.9431 318.943 90.6215 318.943 88.4447V52.5297V52.3735H318.736H293.81H293.603V52.5297V88.4447C293.603 90.62 293.83 91.9412 294.555 92.7545C294.918 93.1612 295.393 93.4397 296.004 93.5978C296.616 93.7558 297.368 93.7851 298.24 93.7851H301.801V98.4385H264.951V93.7851H268.18C269.92 93.7851 271.078 93.6513 271.824 93.1918C272.57 92.7322 272.859 91.9826 272.859 90.9119V11.8051C272.859 9.56861 272.595 8.26278 271.865 7.46409C271.5 7.06474 271.028 6.79949 270.416 6.65209C269.804 6.50469 269.052 6.46471 268.18 6.46471H264.951V1.8426ZM0 1.49906V1.65522V6.62086V6.77701H0.24843H2.85695C4.41417 6.77701 5.66195 7.46428 6.54199 8.74453C7.42203 10.0248 7.90836 11.9048 7.90836 14.1786V85.9775C7.90834 88.1879 7.42399 90.0827 6.54199 91.4116C5.65999 92.7406 4.4063 93.4728 2.85695 93.4728H0.24843H0V93.629V98.5946V98.7508H0.24843H25.8367H26.0438V98.5946V93.629V93.4728H25.8367H21.9033C20.1785 93.4728 18.934 92.7386 18.094 91.4116C17.254 90.0846 16.8518 88.1909 16.8518 85.9775V25.4841L37.0989 98.5009L37.1403 98.6259H37.3059H47.1603H47.3259L47.3673 98.5009L67.6144 25.3904V87.1955C67.6144 89.4153 67.3747 91.0269 66.7449 92.0362C66.1151 93.0455 65.1834 93.4728 63.5981 93.4728H59.0021H58.7537V93.629V98.5946V98.7508H59.0021H95.894H96.101V98.5946V93.629V93.4728H95.894H93.1199C91.5346 93.4728 90.5602 93.0455 89.9317 92.0362C89.3031 91.0269 89.0622 89.4153 89.0622 87.1955V13.0543C89.0622 10.8356 89.303 9.25366 89.9317 8.24485C90.5604 7.23604 91.5352 6.77701 93.1199 6.77701H95.894H96.101V6.62086V1.65522V1.49906H95.894H65.0473H64.8817L64.8402 1.62399L48.9821 62.0237L32.0889 1.62399V1.49906H31.8819H0.24843H0ZM0.455455 1.8426H31.7576L48.7751 62.7733V62.8357H49.1892V62.7733L65.2129 1.8426H95.687V6.46471H93.1199C91.4226 6.46471 90.2411 6.99432 89.559 8.08869C88.877 9.18307 88.6481 10.8179 88.6481 13.0543V87.1955C88.6481 89.4329 88.8772 91.0663 89.559 92.1612C90.2409 93.256 91.4219 93.7851 93.1199 93.7851H95.687V98.4385H59.2092V93.7851H63.5981C65.296 93.7851 66.4343 93.256 67.1175 92.1612C67.8007 91.0663 68.0698 89.433 68.0698 87.1955V23.7352V23.7039H67.8628L67.6558 23.6727V23.7039H67.6144V23.8289L46.9947 98.3136H37.4715L16.8518 23.9538V23.9225L16.6448 23.9538H16.4378V23.985V85.9775C16.4378 88.2204 16.8373 90.14 17.7213 91.5365C18.6054 92.9331 20.0122 93.7851 21.9033 93.7851H25.6297V98.4385H0.455455V93.7851H2.85695C4.58952 93.7851 5.98906 92.9311 6.91464 91.5365C7.84021 90.1419 8.32239 88.2234 8.32241 85.9775V14.1786C8.32241 11.8703 7.84184 9.93724 6.91464 8.58838C5.98743 7.23953 4.58297 6.46471 2.85695 6.46471H0.455455V1.8426ZM514.043 6.46471L514.002 6.5584C510.227 15.1559 507.489 19.9644 504.934 22.5796C502.379 25.1949 500.07 25.6402 496.984 25.6402H494.997H494.79V25.7964V31.1368V31.2929H494.997H501.373V83.604C501.373 89.4896 501.882 93.5822 504.396 96.2211C506.91 98.86 511.398 100 519.136 100C524.172 100 528.405 99.1599 531.392 96.9706C534.379 94.7814 536.071 91.2608 536.071 85.8526V75.3279V75.1718H535.864H528.825H528.576V75.3279V86.9457C528.576 89.1042 528.376 90.6083 527.79 91.5365C527.203 92.4647 526.277 92.8482 524.684 92.8482C523.092 92.8482 522.248 92.4653 521.703 91.599C521.158 90.7327 520.958 89.3593 520.958 87.4453V31.4179H535.532H535.739V31.2617V25.7964V25.6402H535.532H521.123V6.62086V6.46471H520.916H514.209H514.043ZM514.374 6.77701H520.709V25.7964V25.9525H520.916H535.325V31.1056H520.751H520.544V31.2617V87.4453C520.544 89.373 520.727 90.7966 521.33 91.7552C521.934 92.7137 522.993 93.1605 524.684 93.1605C526.375 93.1605 527.518 92.712 528.162 91.6927C528.807 90.6734 529.032 89.1194 529.032 86.9457V75.4841H535.657V85.8526C535.657 91.2107 533.983 94.6407 531.102 96.752C528.222 98.8634 524.112 99.6565 519.136 99.6565C511.452 99.6565 507.136 98.5621 504.727 96.0337C502.319 93.5054 501.787 89.475 501.787 83.604V31.1368V30.9806H501.58H495.204V25.9525H496.984C500.13 25.9525 502.65 25.4435 505.265 22.767C507.865 20.1062 510.629 15.2903 514.374 6.77701ZM429.287 24.4222C420.54 24.4222 413.692 26.7197 409.827 30.1999C405.961 33.6801 405.101 38.3441 408.419 42.9731C409.838 44.9234 411.959 46.1817 414.299 46.6271C416.638 47.0725 419.205 46.7012 421.544 45.3779C423.979 43.9856 425.429 41.8147 424.691 39.4129C423.969 37.0618 421.134 34.528 415.292 32.2611C416.112 31.7765 417.478 31.2749 419.143 30.9182C420.931 30.5349 422.912 30.2936 424.526 30.2936C426.893 30.2936 428.688 30.4544 429.991 30.7933C431.294 31.1321 432.113 31.6435 432.682 32.3548C433.822 33.7773 433.842 36.0705 433.842 39.4129C433.842 40.4003 433.842 50.0423 433.842 51.9675C422.132 54.9761 414.148 57.2971 409.123 61.3054C404.069 65.3369 402.001 71.0279 402.001 80.6371C402 88.0853 403.892 92.928 406.928 95.9088C409.965 98.8896 414.168 100 418.646 100C423.538 100 427.19 98.6609 429.95 96.877C432.575 95.1796 434.317 93.0943 435.622 91.2867C436.421 93.9633 437.359 96.1418 439.307 97.6265C441.347 99.1805 444.458 100 449.493 100C455.277 100 458.914 98.6499 461.045 96.0337C463.175 93.4175 463.819 89.5641 463.819 84.4785V84.3223H463.612H457.691H457.484V84.4785C457.484 88.1284 457.407 90.1318 457.07 91.193C456.901 91.7236 456.683 92.0081 456.407 92.1612C456.132 92.3142 455.764 92.3798 455.248 92.3798C454.769 92.3798 454.437 92.3218 454.213 92.2236C453.989 92.1254 453.831 91.9707 453.716 91.6615C453.487 91.0431 453.468 89.8628 453.468 87.8201V42.7545C453.468 35.485 450.854 30.8817 446.512 28.1074C442.169 25.3332 436.124 24.4222 429.287 24.4222ZM429.287 24.7345C436.073 24.7345 442.033 25.6547 446.263 28.3573C450.494 31.0598 453.054 35.5422 453.054 42.7545V87.8201C453.054 89.8628 453.038 91.0429 453.302 91.7552C453.434 92.1113 453.675 92.3593 454.006 92.5047C454.337 92.6501 454.74 92.6921 455.248 92.6921C455.796 92.6921 456.27 92.6254 456.656 92.411C457.041 92.1966 457.303 91.8546 457.484 91.2867C457.837 90.1768 457.894 88.1314 457.898 84.6346H463.405C463.389 89.6115 462.701 93.3862 460.672 95.8776C458.619 98.3984 455.193 99.6565 449.493 99.6565C444.518 99.6565 441.538 98.8867 439.597 97.4079C437.656 95.929 436.73 93.7195 435.912 90.8807L435.788 90.4435L435.498 90.8495C434.191 92.6983 432.357 94.9145 429.66 96.6583C426.962 98.4022 423.437 99.6565 418.646 99.6565C414.26 99.6565 410.213 98.6207 407.26 95.7214C404.306 92.8222 402.455 88.0446 402.457 80.6371C402.457 71.0622 404.497 65.4783 409.454 61.524C414.412 57.5697 422.319 55.2177 434.132 52.1861L434.256 52.1549V52.03C434.256 50.1731 434.256 40.4052 434.256 39.4129C434.256 36.0705 434.295 33.747 433.055 32.1986C432.435 31.4245 431.49 30.8696 430.115 30.5122C428.741 30.1548 426.918 29.9813 424.526 29.9813C422.856 29.9813 420.84 30.2154 419.019 30.6059C417.197 30.9964 415.587 31.5459 414.713 32.1362L414.506 32.2923L414.754 32.386C420.791 34.6646 423.579 37.203 424.277 39.4753C424.975 41.7476 423.626 43.795 421.296 45.128C419.044 46.4021 416.594 46.7361 414.381 46.3148C412.168 45.8935 410.163 44.7024 408.792 42.817C405.544 38.2857 406.392 33.7778 410.158 30.3873C413.924 26.9967 420.638 24.7345 429.287 24.7345ZM374.591 24.4222C366.559 24.4222 359.441 27.6457 354.344 34.0412C349.248 40.4367 346.146 49.9726 346.146 62.6796C346.147 76.6212 348.991 85.9422 353.971 91.7864C358.952 97.6305 366.091 100 374.591 100C382.663 100 388.817 98.6738 392.685 94.9719C396.553 91.27 398.104 85.223 397.115 75.7964V75.6402H396.908H390.035H389.828V75.8276C390.074 83.7413 389.314 88.0541 387.592 90.3498C386.731 91.4976 385.64 92.129 384.28 92.5047C382.92 92.8804 381.273 92.9731 379.353 92.9731C376.54 92.9731 374.428 92.7133 372.811 91.9113C371.194 91.1093 370.052 89.7775 369.25 87.6015C367.645 83.2496 367.428 75.5503 367.428 62.4297C367.428 61.9727 367.428 61.2548 367.428 60.3685H398.565H398.772V60.2124C398.772 46.9575 397.089 38.0319 393.223 32.386C389.358 26.7401 383.257 24.4222 374.591 24.4222ZM374.591 24.7345C383.158 24.7345 389.046 26.985 392.851 32.5422C396.639 38.0755 398.343 46.9152 398.358 60.0562H367.221H367.014V60.2124C367.014 61.1998 367.014 61.938 367.014 62.4297C367.014 75.5528 367.199 83.2264 368.836 87.664C369.654 89.8827 370.841 91.3073 372.562 92.1612C374.284 93.015 376.503 93.3167 379.353 93.3167C381.291 93.3167 382.963 93.2151 384.404 92.817C385.845 92.4189 387.062 91.7102 387.965 90.5059C389.754 88.1213 390.467 83.7662 390.242 75.9838H396.701C397.65 85.2747 396.094 91.2049 392.354 94.7845C388.591 98.3861 382.603 99.6565 374.591 99.6565C366.193 99.6565 359.212 97.3908 354.303 91.6302C349.393 85.8696 346.561 76.5886 346.56 62.6796C346.56 50.0115 349.636 40.5212 354.675 34.1974C359.715 27.8736 366.708 24.7345 374.591 24.7345ZM236.216 24.4222C230.508 24.4222 225.066 25.7749 221.061 28.6696C217.057 31.5643 214.478 35.9693 214.478 42.005C214.478 47.6566 215.749 51.6508 218.411 55.3716C221.074 59.0925 225.128 62.5364 230.626 67.2392C235.387 71.3254 238.945 74.2776 241.308 77.0144C243.672 79.7511 244.828 82.2893 244.828 85.6027C244.828 88.2498 244.333 90.2679 242.965 91.6302C241.596 92.9926 239.374 93.7227 235.719 93.7227C232.631 93.7227 230.108 93.2015 228.1 91.5053C226.092 89.8091 224.566 86.92 223.587 82.2299L222.304 75.7964L222.262 75.6402H222.096H214.851H214.644V75.8276V98.5946V98.7508H214.851H220.937H221.103L221.144 98.6259C221.468 97.4658 222.024 96.3277 222.676 95.5965C223.002 95.2309 223.35 94.9685 223.67 94.847C223.989 94.7254 224.268 94.7207 224.581 94.8782C226.763 96.7626 231.74 100 239.818 100C246.92 100 252.48 98.1643 256.256 94.9719C260.031 91.7795 262.011 87.237 262.011 81.7614C262.011 76.0485 260.678 71.9272 257.995 68.1137C255.312 64.3002 251.28 60.7952 245.863 56.2773C240.696 52.0064 237.151 49.0805 234.891 46.346C232.631 43.6116 231.661 41.0747 231.661 37.5703C231.661 35.5443 232.091 33.9088 233.276 32.792C234.461 31.6752 236.407 31.0431 239.487 31.0431C242.574 31.0431 244.957 31.4992 246.732 32.8232C248.508 34.1472 249.683 36.3722 250.252 39.9438L251.411 46.877L251.453 47.0019H251.618H258.823H259.071V46.8457V25.7964V25.6402H258.823H252.943H252.736V25.7964C252.574 27.0984 252.481 28.1029 252.322 28.732C252.243 29.0466 252.127 29.2734 252.032 29.3567C251.985 29.3983 251.948 29.4149 251.908 29.4191C251.876 29.4225 251.812 29.4089 251.742 29.3879C251.739 29.3853 251.705 29.3905 251.701 29.3879C250.215 28.3878 244.49 24.4222 236.216 24.4222ZM236.216 24.7345C244.331 24.7345 250.017 28.644 251.494 29.6377L251.535 29.669C251.684 29.7252 251.84 29.7471 251.991 29.7314C252.141 29.7157 252.266 29.6611 252.364 29.5753C252.558 29.4036 252.652 29.1298 252.736 28.7945C252.898 28.1519 253.002 27.1726 253.15 25.9525H258.616V46.6896H251.784L250.666 39.8813C250.091 36.2734 248.899 34.0039 247.022 32.6046C245.146 31.2053 242.63 30.7308 239.487 30.7308C236.329 30.7308 234.222 31.4009 232.945 32.6046C231.667 33.8084 231.247 35.5088 231.247 37.5703C231.247 41.1194 232.225 43.7273 234.518 46.5022C236.811 49.2771 240.406 52.2252 245.573 56.4959C250.987 61.0114 254.971 64.5018 257.622 68.2698C260.273 72.0378 261.597 76.0854 261.597 81.7614C261.597 87.179 259.616 91.6633 255.924 94.7845C252.233 97.9057 246.825 99.6565 239.818 99.6565C231.85 99.6565 226.984 96.4948 224.871 94.6596L224.829 94.6284C224.406 94.4146 223.927 94.4051 223.504 94.5659C223.082 94.7267 222.695 95.0165 222.345 95.4091C221.673 96.162 221.151 97.2983 220.813 98.4385H215.058V75.9838H221.931L223.173 82.2611C224.159 86.9811 225.673 89.9225 227.769 91.6927C229.864 93.4628 232.564 94.035 235.719 94.035C239.45 94.035 241.877 93.2717 243.337 91.8176C244.798 90.3635 245.283 88.2794 245.283 85.6027C245.283 82.2323 244.075 79.599 241.681 76.827C239.287 74.055 235.716 71.1356 230.957 67.0518C225.459 62.3495 221.414 58.8908 218.784 55.2155C216.154 51.5402 214.892 47.6204 214.892 42.005C214.892 36.0372 217.437 31.7494 221.351 28.9194C225.266 26.0895 230.598 24.7345 236.216 24.7345ZM434.256 55.7464L433.966 55.8713C428.213 58.2905 424.907 60.089 423.076 63.3354C421.246 66.5819 420.882 71.2139 420.882 79.3879C420.882 84.0321 420.994 87.0273 421.793 88.8819C422.192 89.8093 422.783 90.4684 423.615 90.8807C424.447 91.293 425.508 91.4428 426.844 91.4428C429.939 91.4428 431.857 90.4401 432.931 88.7883C434.005 87.1364 434.256 84.8703 434.256 82.2611V55.9963V55.7464ZM433.842 56.3086V82.2611C433.842 84.8526 433.577 87.0967 432.558 88.6633C431.54 90.23 429.821 91.1305 426.844 91.1305C425.554 91.1305 424.601 90.965 423.863 90.5996C423.126 90.2342 422.587 89.6715 422.207 88.7883C421.446 87.0217 421.296 84.0279 421.296 79.3879C421.296 71.2211 421.668 66.6191 423.449 63.4603C425.187 60.3771 428.362 58.6323 433.842 56.3086Z" fill="white"/>
</svg>
