<svg width="270" height="76" viewBox="0 0 270 76" fill="none" xmlns="http://www.w3.org/2000/svg">
<path d="M169.334 29.4133C169.334 29.4133 172.352 29.5219 173.199 29.1119C175.033 28.2207 175.954 25.7075 175.95 22.827C175.946 20.7484 175.64 18.8264 173.945 17.5549C173.159 16.9664 172.128 17.0039 171.226 16.9586C170.23 16.9095 169.307 16.9121 169.307 16.9121L169.334 29.4133ZM169.307 59.499C169.307 59.499 171.585 59.7706 173.167 59.0411C175.5 57.9636 176.169 55.1814 176.2 51.7214C176.226 48.8073 175.582 46.2721 173.802 45.2606C172.296 44.4083 169.32 44.6928 169.32 44.6928L169.307 59.499ZM153.179 0.330014C153.179 0.330014 163.078 0.236886 170.948 0.308026C174.62 0.456773 177.024 0.728397 179.424 1.65451C184.571 3.64125 188.528 10.234 188.454 18.6155C188.371 28.081 184.872 36.094 178.789 36.8054C185.505 37.1016 189.68 46.1687 189.556 55.9174C189.42 66.4733 184.679 74.6647 178.48 75.0501C172.404 75.4265 153.229 75.2299 153.229 75.2299L153.208 59.4679L156.773 59.4705L156.772 17.1539L153.168 17.1514L153.179 0.330014Z" fill="white"/>
<path d="M210.912 60.0981C214.75 60.1405 215.855 51.3627 215.855 38.1923C215.855 25.0219 214.804 15.072 210.633 15.072C206.926 15.072 205.412 25.0219 205.412 38.1923C205.412 51.3627 207.058 60.0556 210.912 60.0981ZM191.474 37.7804C191.474 17.0705 199.024 0.237646 210.626 0.281335C222.766 0.326272 229.779 17.0705 229.779 37.7804C229.779 58.4916 222.229 75.1658 210.626 75.2807C199.334 75.3931 191.474 58.4916 191.474 37.7804Z" fill="white"/>
<path d="M3.78376 17.217L3.75848 59.7004L0.0621119 59.659V75.2812H21.7333V59.7806H17.3906L17.3479 49.0398C17.3479 49.0398 23.3576 49.3243 25.1321 48.9091C33.5512 46.9405 36.3411 35.1817 36.3895 24.6647C36.4444 13.1194 33.3121 3.84407 24.94 1.19509C22.5155 0.428074 19.0293 0.305197 15.0086 0.287088C7.84991 0.254752 0 0.367282 0 0.367282L0.00288881 17.2145L3.78376 17.217ZM17.3913 17.1808C17.3913 17.1808 20.2347 16.785 21.5455 17.543C22.9929 18.3786 23.3793 20.8102 23.3793 25.3852C23.3793 29.9614 21.82 32.6311 20.6774 32.9506C19.3117 33.3334 17.3898 33.089 17.3898 33.089L17.3913 17.1808Z" fill="white"/>
<path d="M38.2588 17.0885L38.2524 0.28125H59.1873L59.188 17.1118H54.9759L54.9561 59.4661H61.0923L61.0894 46.6026L70.8114 46.5871L70.7945 75.2812H38.2517L38.2546 59.4726L41.9419 59.4908L41.9327 17.0562L38.2588 17.0885Z" fill="white"/>
<path d="M89.2544 37.1882L94.9381 37.1661L92.7368 15.5773L89.2544 37.1882ZM87.4561 0.28125H100.703L110.119 59.3707H112.947V75.2812L93.9364 75.1998L93.9322 59.2892L97.5768 59.3707L96.9416 52.7573H87.3254L86.03 59.3707H90.2276L90.2341 75.1998H74.6477L74.6418 59.3539L77.6219 59.3952L87.4561 0.28125Z" fill="white"/>
<path d="M111.032 17.1089V0.28125H131.739L131.721 17.1089H128.546L132.995 30.4357L137.157 17.1658L134.36 17.1606L134.36 0.28125H149.338L149.331 17.1089H146.774L137.035 46.0308L137.034 59.4378H142.019V75.2812H119.714L119.714 59.4081L123.43 59.4248L123.436 45.0052L113.402 17.1088L111.032 17.1089Z" fill="white"/>
<path d="M231.695 17.1086V0.28125H252.435L252.435 17.1086L249.49 17.044L253.617 29.7643L257.755 17.0672L255.051 17.1254V0.28125H270V17.1086L267.21 17.044L257.919 44.3934L257.921 59.4374H262.2V75.2812H240.426L240.427 59.4206L244.138 59.427L244.121 45.3187L234.124 17.1086L231.695 17.1086Z" fill="white"/>
</svg>
