<svg width="78" height="78" viewBox="0 0 78 78" fill="none" xmlns="http://www.w3.org/2000/svg">
<mask id="path-1-inside-1_42_426" fill="white">
<path d="M14.3975 0.102715C14.205 0.481743 13.311 4.8216 11.3865 14.809C10.9457 17.0831 10.0828 21.7388 9.79723 23.3371C9.07088 27.4937 8.85981 28.6245 8.20795 32.0547C6.66213 40.1596 5.17838 47.519 4.94247 48.2265C4.64448 49.1172 4.26578 49.6479 3.93675 49.6479C3.29111 49.6479 2.39093 47.7464 2.0681 45.7123C2.01844 45.4028 1.84461 45.3964 1.56525 45.6997C1.12447 46.1798 0.571943 48.6182 0.0752924 52.2568C-0.0240377 53.0086 -0.0240377 53.0717 0.0690843 53.1728C0.280161 53.3876 0.354659 53.1665 0.578151 51.5999C0.826477 49.8879 1.04997 48.6308 1.26725 47.6896C1.44108 46.9252 1.65837 46.2366 1.71424 46.2366C1.73907 46.2366 1.81978 46.5146 1.90048 46.8557C2.19227 48.1254 2.88758 49.5278 3.40285 49.8816C4.10437 50.3491 4.73139 49.9385 5.197 48.7129C5.4205 48.1254 5.82403 46.2745 6.74904 41.6567C7.98446 35.4533 9.25092 28.8014 9.86552 25.2954C10.0704 24.1141 10.2442 23.116 10.2566 23.0844C10.2628 23.0465 10.2939 24.032 10.3125 25.2638C10.4305 32.4527 12.1067 43.5771 13.7766 48.2707C14.1926 49.4457 14.5092 50.4059 14.4782 50.4059C14.4595 50.4059 14.3913 50.3743 14.3168 50.3364C14.0871 50.2101 13.907 50.3175 13.7208 50.7028C13.4476 51.2714 13.0565 51.4672 12.4419 51.3472C11.8025 51.2271 11.6286 50.9429 11.3555 49.5594C11.1692 48.6245 11.0699 48.3844 10.8526 48.3844C10.5919 48.3844 10.5112 48.6245 10.1759 50.4059C10.0766 50.9492 9.9214 51.6062 9.84069 51.8778C9.70411 52.3074 9.6979 52.3769 9.77861 52.459C9.95865 52.6485 10.0456 52.5601 10.2256 51.9852C10.3435 51.6251 10.6415 50.2354 10.7595 49.471C10.7843 49.3257 10.8216 49.2057 10.8402 49.2057C10.865 49.2057 10.9457 49.5215 11.0202 49.9069C11.1009 50.3364 11.2251 50.766 11.3431 51.006C11.5169 51.3661 11.579 51.4293 11.8956 51.5872C12.6716 51.9726 13.5097 51.7957 13.9381 51.1513C14.0436 50.9871 14.1429 50.8165 14.1553 50.7723C14.174 50.7218 14.2733 50.7597 14.4533 50.886C14.6644 51.0313 14.7451 51.1324 14.8134 51.3535C14.8569 51.5114 15.3101 53.116 15.8253 54.9227C17.6629 61.4167 18.5445 63.6529 20.3697 66.4514C21.7355 68.5487 22.9026 69.6794 23.7904 69.7805C24.5353 69.869 25.1313 69.1046 25.2369 67.9296C25.2803 67.4179 25.1437 67.001 24.8644 66.8304C24.5229 66.6156 24.287 66.8936 24.6098 67.1273C24.8085 67.2789 24.883 67.6011 24.8085 68.0686C24.7402 68.5487 24.436 69.1804 24.2311 69.2941C23.5234 69.6794 22.2445 68.574 20.7298 66.2745C18.9232 63.5266 18.0106 61.2082 16.2847 55.049C15.9619 53.8993 15.6018 52.6232 15.4777 52.2063C15.3597 51.7894 15.2604 51.4356 15.2604 51.4103C15.2604 51.3282 15.875 51.5872 16.0675 51.7578C16.4648 52.0926 16.7007 52.1747 17.3091 52.1747C18.0665 52.1747 18.3272 52.0231 18.6873 51.3724L18.8363 51.1134L18.8114 52.7306C18.7866 54.5436 18.8114 54.7205 19.0908 54.6889C19.2522 54.67 19.2833 54.6131 19.5502 53.8487C20.1586 52.1052 21.0464 49.9637 21.1581 49.9637C21.245 49.9637 21.3257 50.1216 21.5865 50.7976C22.0273 51.9157 22.3128 52.2568 22.9523 52.4274C23.4489 52.5601 24.2436 52.3895 24.7402 52.0421C24.883 51.941 25.0196 51.8589 25.0382 51.8589C25.063 51.8589 25.1934 51.9599 25.3362 52.08C25.6466 52.3516 25.9881 52.4716 26.1743 52.3705C26.2426 52.3326 26.3171 52.3011 26.3295 52.3011C26.3419 52.3011 26.373 53.4571 26.3916 54.8721C26.4412 58.6245 26.6772 60.8102 27.2793 63.1602C28.0305 66.104 29.3777 68.1065 30.9918 68.675C31.445 68.833 32.0162 68.8203 32.3824 68.6498C33.4751 68.1318 34.7726 65.8765 35.8776 62.5664C36.0701 61.9726 36.2501 61.5367 36.2687 61.5872C36.3494 61.8336 36.4612 65.2196 36.455 67.4306C36.455 70.1343 36.3991 70.8671 36.0514 72.977C35.5734 75.8765 34.965 77.4432 34.2573 77.6011C34.1021 77.6327 34.0276 77.6137 33.9158 77.5064C33.6241 77.2284 33.5744 76.464 33.7048 74.1899C33.7979 72.6864 33.7544 72.2947 33.5123 72.2947C33.3571 72.2947 33.3571 72.301 33.3447 72.8633C33.3385 73.1728 33.3012 74.0888 33.2578 74.8848C33.2081 75.9839 33.2081 76.4577 33.2578 76.8115C33.3944 77.7085 33.6861 78.0559 34.2387 77.9928C35.2506 77.8791 35.8838 76.4451 36.455 72.958C36.8088 70.8102 36.8337 70.4312 36.8337 67.1779C36.8337 64.9921 36.8026 63.6908 36.7157 62.2442L36.5978 60.2796L36.9765 58.8014C37.5041 56.7609 38.2677 53.1791 38.4912 51.7072C38.5037 51.6125 38.6464 51.543 39.0996 51.404C40.9124 50.8355 42.4396 50.0964 43.6564 49.1867C44.0661 48.8772 44.0848 48.8709 44.1655 48.9846C44.2151 49.0541 44.271 49.212 44.2896 49.3383C44.3517 49.711 44.389 49.7426 44.6621 49.591C45.1091 49.351 45.2705 49.1551 45.4692 48.6245L45.612 48.2265L45.6182 48.4792C45.6244 48.8835 45.792 49.5847 45.9658 49.9574C46.1955 50.4312 46.5991 50.8481 46.835 50.8481C47.0647 50.8418 47.2013 50.7281 47.5986 50.1659C47.9711 49.6479 48.1201 49.5342 48.2691 49.6605C48.3249 49.7047 48.6043 50.0648 48.8837 50.4501C49.5976 51.4356 50.0322 51.7325 50.6219 51.6378C50.9386 51.5935 51.249 51.3472 51.46 50.9871C51.6401 50.6776 51.8325 50.4691 51.9256 50.4691C51.9691 50.4691 52.2671 50.9997 52.5961 51.6504C53.4901 53.4318 53.9805 54.0067 54.6014 54.0067C55.5884 54.0067 56.2527 53.0023 57.1343 50.1975C57.8606 47.8601 58.6739 44.771 61.1075 35.1185C62.7651 28.5361 63.0941 27.1652 63.5224 25.0427C63.7459 23.9625 63.926 23.1286 63.926 23.1791C63.9322 23.2297 63.8639 23.8867 63.7832 24.6321C63.5287 26.9062 63.479 28.1065 63.5162 30.6965C63.5349 31.9978 63.5845 33.4887 63.6156 34.013C64.1619 42.0926 65.2297 47.9422 67.0735 52.9833C68.222 56.1166 69.3705 58.4287 70.6494 60.1595C71.711 61.5999 72.6049 62.4906 73.4865 62.9643C74.0949 63.2992 74.5667 63.4192 75.231 63.4192C75.9015 63.4192 76.3547 63.3055 77.0624 62.9517C77.7391 62.6106 78.0495 62.3579 77.9936 62.2063C77.9315 62.0421 77.7391 62.0673 77.4287 62.2884C76.7706 62.7496 75.9139 63.0402 75.231 63.0402C73.8838 63.0338 72.6981 62.181 71.0281 60.0079C69.3891 57.8664 67.4646 53.4824 66.2664 49.1362C65.1614 45.1438 64.3233 39.3383 63.9881 33.3181C63.8701 31.303 63.8887 27.6896 64.0129 26.2745C64.2178 24.0256 64.5902 21.1577 65.18 17.26C65.2545 16.7673 65.298 16.3188 65.2794 16.2682C65.2545 16.2114 65.1676 16.1671 65.0869 16.1671C64.8882 16.1671 64.9255 16.0345 64.2736 19.2941C63.9756 20.7534 63.5845 22.7117 63.3983 23.6529C62.7713 26.7925 62.6223 27.4242 61.5048 31.8968C56.9977 49.8437 56.3086 52.2189 55.2967 53.2613C54.8248 53.7477 54.4772 53.7287 53.993 53.2044C53.6888 52.8822 53.5522 52.6485 52.9127 51.3661C52.6023 50.7407 52.3043 50.2227 52.2112 50.1469C51.9443 49.9385 51.5718 50.0901 51.28 50.5449C51.1869 50.6902 51.0255 50.8987 50.9199 51.0124C50.7523 51.1956 50.6778 51.2271 50.4481 51.2271C50.0508 51.2271 49.7652 50.9871 49.1941 50.1911C48.6229 49.4015 48.418 49.2057 48.1387 49.2057C47.8779 49.2057 47.6731 49.3699 47.3316 49.8626C47.1764 50.0774 47.0026 50.3048 46.9343 50.3617C46.8163 50.4691 46.8039 50.4691 46.6425 50.2669C46.2017 49.7363 45.9907 48.9088 45.9907 47.7085C45.9907 47.4179 45.9596 47.1337 45.9224 47.0705C45.8727 46.982 45.91 46.8747 46.1086 46.5209C47.313 44.4299 48.1263 39.6416 47.9214 35.8955C47.791 33.6656 47.5365 32.2316 46.9467 30.4438C46.3073 28.5045 45.5871 27.1905 44.6683 26.2935C44.2462 25.8829 44.0227 25.7186 43.5571 25.4912C43.2405 25.3333 42.8742 25.188 42.75 25.1627C42.5452 25.1311 42.5141 25.0995 42.5141 24.9416C42.5141 24.7205 42.9301 20.7407 43.2591 17.8412C43.8985 12.1937 44.0103 10.9934 44.0227 9.62893C44.0289 8.22652 43.8613 7.60745 43.4081 7.32318C42.9673 7.04523 42.1106 7.22842 41.2849 7.78433C38.3609 9.76791 36.4177 16.5462 35.6231 27.5064C35.592 27.9928 35.561 28.435 35.561 28.4855C35.561 28.5424 35.2816 28.8961 34.934 29.2752C32.9536 31.4672 31.1532 34.1646 29.9054 36.7925C28.0926 40.6144 26.9255 45.2448 26.522 50.1596C26.3792 51.9726 26.1867 52.2821 25.5473 51.7388C25.1127 51.3724 25.063 51.3661 24.5788 51.663C24.0697 51.9789 23.8525 52.0484 23.3744 52.0484C22.7039 52.0484 22.3687 51.7578 22.0583 50.8923C21.7355 50.0016 21.5368 49.6479 21.3009 49.5342L21.0836 49.4268L20.8788 49.6668C20.6491 49.9385 20.1276 51.1198 19.6061 52.5348C19.4136 53.0654 19.2336 53.5203 19.2026 53.5518C19.1467 53.6024 19.2088 51.7072 19.3019 50.4691C19.3516 49.8121 19.4261 49.4141 19.6123 48.7319C20.0841 47.0389 20.736 43.7793 22.2073 35.7502C22.8157 32.4274 22.8716 31.8273 22.5674 31.6314C22.437 31.543 22.17 31.5809 22.0707 31.6946C21.6113 32.2126 20.8415 35.4343 20.1089 39.9511C19.6309 42.8949 19.2646 45.8513 18.9915 49.0162C18.9108 49.9637 18.4514 51.1956 18.0354 51.5935C17.8181 51.802 17.0235 51.8462 16.6945 51.6693C16.2785 51.4419 16.2785 51.4419 16.4089 51.2903C16.5889 51.0882 16.6138 50.3301 16.4524 50.0269C16.2847 49.7174 16.0612 49.6163 15.8315 49.7363C15.5584 49.8816 15.4218 50.2227 15.4653 50.6712L15.4963 51.0439L15.3039 50.9176C15.1921 50.8481 15.0866 50.7534 15.0617 50.7091C14.9003 50.4186 13.7518 46.9568 13.4973 45.9839C11.877 39.8374 10.3746 27.3358 10.7222 22.9896C10.9333 20.4312 11.7776 15.6997 13.9877 4.76475C14.6147 1.65672 14.8507 0.26696 14.7886 0.0963974C14.7389 -0.0362625 14.472 -0.0299454 14.3975 0.102715ZM43.2715 7.7338C43.5385 8.00543 43.6005 8.37182 43.6005 9.6921C43.5943 11.1134 43.5819 11.3093 42.9487 17.02C42.6755 19.452 42.3837 22.1368 42.2968 22.9896C42.2099 23.8424 42.1292 24.651 42.1106 24.7963L42.0733 25.0553L41.5332 25.0932C39.9936 25.2006 38.4478 26.0029 36.5729 27.6643C36.0514 28.1254 35.9956 28.1633 35.9956 28.0181C35.9956 27.9359 36.039 27.3295 36.0887 26.6725C36.9268 16.0282 38.9506 9.45205 41.8623 7.91068C42.5576 7.54428 43.0294 7.48111 43.2715 7.7338ZM42.0175 25.6239C42.0175 25.8829 41.5456 30.5639 41.3656 32.1494C41.0242 35.0869 40.7448 36.8431 39.9688 40.9934C39.3666 44.2088 39.1369 45.4849 38.6961 48.1633C38.274 50.7281 38.1932 51.164 38.125 51.2271C38.0629 51.2903 36.7468 51.5872 36.2936 51.6441L35.9583 51.682L35.8838 50.6586C35.6976 48.1886 35.6603 46.3314 35.6541 40.4565C35.6541 34.6321 35.6852 33.1728 35.8776 29.9069L35.9397 28.833L36.3867 28.3908C38.1808 26.6157 40.2109 25.5038 41.7567 25.4596C42.005 25.4533 42.0175 25.4659 42.0175 25.6239ZM43.1163 25.7186C43.8427 25.9903 44.6683 26.7357 45.2643 27.6517C46.121 28.9593 47.0026 31.5367 47.2882 33.5898C47.8159 37.3042 47.5055 41.3219 46.4439 44.6889C46.0403 45.965 45.5623 46.7925 44.6932 47.7085C44.2027 48.2265 44.1593 48.2581 43.9668 48.2202C43.7123 48.176 43.6378 48.2139 42.8618 48.8582C42.2223 49.3825 41.8498 49.6479 41.7443 49.6479C41.6636 49.6479 41.7319 49.2309 41.9243 48.6119C42.0733 48.1254 42.0858 48.0433 42.005 47.9675C41.8436 47.8033 41.7133 47.9359 41.5581 48.4413C41.3221 49.2057 41.2414 49.6921 41.3284 49.8753C41.3656 49.9637 41.3966 50.0395 41.3966 50.0522C41.3966 50.1596 38.7085 51.1703 38.6402 51.0945C38.5906 51.0376 39.6397 44.9353 40.3351 41.2145C41.347 35.8134 41.6574 33.6024 42.1727 28.2644C42.452 25.3206 42.421 25.5102 42.6259 25.5544C42.719 25.5797 42.9425 25.6491 43.1163 25.7186ZM35.443 30.6144C35.2754 33.6782 35.2258 35.8386 35.2258 40.2985C35.2258 45.1122 35.3065 48.3023 35.4741 50.4944C35.5238 51.1513 35.5486 51.7009 35.53 51.7262C35.443 51.8083 34.338 51.7515 33.9779 51.6441C33.6489 51.543 33.5434 51.4672 32.9784 50.8797C32.2769 50.1659 31.9603 49.9764 31.563 50.0522C31.2091 50.1216 31.0166 50.4312 30.6566 51.4988C30.4827 52.0168 30.2841 52.5285 30.2158 52.6232C30.0295 52.8949 29.7626 52.8696 29.0611 52.5222C28.4154 52.2 27.8567 51.7136 27.3849 51.0629C27.2235 50.8418 27.0434 50.646 26.9814 50.6207C26.882 50.5891 26.8696 50.5386 26.8944 50.3238C26.9131 50.1785 26.9441 49.8563 26.9627 49.6163C27.149 47.3484 27.7263 44.2657 28.3906 41.9726C29.7564 37.2789 31.7306 33.6213 34.8719 29.9827C35.1885 29.61 35.4679 29.3194 35.4803 29.332C35.4989 29.3447 35.4803 29.9258 35.443 30.6144ZM22.319 32.5537C22.2942 32.8443 22.1638 33.7161 22.0273 34.4931C21.5741 37.0326 20.171 44.4741 19.9165 45.6681C19.7799 46.3061 19.6682 46.862 19.6682 46.8936C19.6682 46.9252 19.6495 46.9378 19.6309 46.9189C19.5813 46.862 19.8234 44.6889 20.1089 42.6674C20.736 38.2012 21.5306 34.1457 22.0956 32.5727C22.2011 32.2695 22.3004 32.0231 22.319 32.0231C22.3377 32.0231 22.3377 32.2632 22.319 32.5537ZM45.2146 48.018C45.1402 48.4666 44.836 49.0793 44.687 49.0793C44.6621 49.0793 44.6 48.9656 44.5442 48.8203L44.4448 48.5676L44.8297 48.1697C45.0408 47.9486 45.2271 47.7654 45.2333 47.759C45.2457 47.759 45.2395 47.8728 45.2146 48.018ZM16.1233 50.2859C16.2164 50.5575 16.2102 50.8608 16.1109 50.9997C16.0302 51.1071 16.0178 51.1008 15.9247 50.8923C15.8005 50.6333 15.7943 50.4691 15.8936 50.248C15.9867 50.0395 16.0426 50.0458 16.1233 50.2859ZM32.0969 50.6144C32.221 50.6902 32.5066 50.9618 32.7363 51.2145C32.966 51.4672 33.2702 51.7451 33.413 51.8273C33.7855 52.0484 34.4373 52.1873 35.0581 52.1684L35.592 52.1558L35.7286 53.9814C35.8031 54.9858 35.9397 56.8052 36.0266 58.0244L36.1818 60.248L35.9397 61.0566C35.3623 62.9517 34.8843 64.2404 34.2573 65.5354C33.3633 67.399 32.4818 68.4034 31.7306 68.4097C31.4388 68.4097 30.818 68.1949 30.4703 67.9675C30.0233 67.6769 29.2411 66.8052 28.8997 66.205C27.6518 64.0572 27 60.9555 26.7951 56.1545C26.7206 54.3857 26.7765 51.2966 26.8882 51.1829C26.9193 51.1577 27 51.2208 27.0745 51.3219C27.3352 51.6946 27.9622 52.32 28.3285 52.5727C28.7631 52.8759 29.6136 53.2486 29.8806 53.2486C30.1475 53.2486 30.4393 53.0465 30.6193 52.7306C30.7 52.579 30.8863 52.1052 31.0229 51.6693C31.4202 50.4249 31.5692 50.2796 32.0969 50.6144ZM37.8828 52.8191C37.4545 55.0743 36.5791 58.9846 36.5171 58.9151C36.486 58.8835 35.9894 52.1558 36.0204 52.1305C36.0266 52.1179 36.2873 52.0673 36.5915 52.0168C36.8957 51.9599 37.2993 51.8778 37.4855 51.8336C38.1498 51.663 38.1188 51.5746 37.8828 52.8191Z"/>
</mask>
<path d="M14.3975 0.102715C14.205 0.481743 13.311 4.8216 11.3865 14.809C10.9457 17.0831 10.0828 21.7388 9.79723 23.3371C9.07088 27.4937 8.85981 28.6245 8.20795 32.0547C6.66213 40.1596 5.17838 47.519 4.94247 48.2265C4.64448 49.1172 4.26578 49.6479 3.93675 49.6479C3.29111 49.6479 2.39093 47.7464 2.0681 45.7123C2.01844 45.4028 1.84461 45.3964 1.56525 45.6997C1.12447 46.1798 0.571943 48.6182 0.0752924 52.2568C-0.0240377 53.0086 -0.0240377 53.0717 0.0690843 53.1728C0.280161 53.3876 0.354659 53.1665 0.578151 51.5999C0.826477 49.8879 1.04997 48.6308 1.26725 47.6896C1.44108 46.9252 1.65837 46.2366 1.71424 46.2366C1.73907 46.2366 1.81978 46.5146 1.90048 46.8557C2.19227 48.1254 2.88758 49.5278 3.40285 49.8816C4.10437 50.3491 4.73139 49.9385 5.197 48.7129C5.4205 48.1254 5.82403 46.2745 6.74904 41.6567C7.98446 35.4533 9.25092 28.8014 9.86552 25.2954C10.0704 24.1141 10.2442 23.116 10.2566 23.0844C10.2628 23.0465 10.2939 24.032 10.3125 25.2638C10.4305 32.4527 12.1067 43.5771 13.7766 48.2707C14.1926 49.4457 14.5092 50.4059 14.4782 50.4059C14.4595 50.4059 14.3913 50.3743 14.3168 50.3364C14.0871 50.2101 13.907 50.3175 13.7208 50.7028C13.4476 51.2714 13.0565 51.4672 12.4419 51.3472C11.8025 51.2271 11.6286 50.9429 11.3555 49.5594C11.1692 48.6245 11.0699 48.3844 10.8526 48.3844C10.5919 48.3844 10.5112 48.6245 10.1759 50.4059C10.0766 50.9492 9.9214 51.6062 9.84069 51.8778C9.70411 52.3074 9.6979 52.3769 9.77861 52.459C9.95865 52.6485 10.0456 52.5601 10.2256 51.9852C10.3435 51.6251 10.6415 50.2354 10.7595 49.471C10.7843 49.3257 10.8216 49.2057 10.8402 49.2057C10.865 49.2057 10.9457 49.5215 11.0202 49.9069C11.1009 50.3364 11.2251 50.766 11.3431 51.006C11.5169 51.3661 11.579 51.4293 11.8956 51.5872C12.6716 51.9726 13.5097 51.7957 13.9381 51.1513C14.0436 50.9871 14.1429 50.8165 14.1553 50.7723C14.174 50.7218 14.2733 50.7597 14.4533 50.886C14.6644 51.0313 14.7451 51.1324 14.8134 51.3535C14.8569 51.5114 15.3101 53.116 15.8253 54.9227C17.6629 61.4167 18.5445 63.6529 20.3697 66.4514C21.7355 68.5487 22.9026 69.6794 23.7904 69.7805C24.5353 69.869 25.1313 69.1046 25.2369 67.9296C25.2803 67.4179 25.1437 67.001 24.8644 66.8304C24.5229 66.6156 24.287 66.8936 24.6098 67.1273C24.8085 67.2789 24.883 67.6011 24.8085 68.0686C24.7402 68.5487 24.436 69.1804 24.2311 69.2941C23.5234 69.6794 22.2445 68.574 20.7298 66.2745C18.9232 63.5266 18.0106 61.2082 16.2847 55.049C15.9619 53.8993 15.6018 52.6232 15.4777 52.2063C15.3597 51.7894 15.2604 51.4356 15.2604 51.4103C15.2604 51.3282 15.875 51.5872 16.0675 51.7578C16.4648 52.0926 16.7007 52.1747 17.3091 52.1747C18.0665 52.1747 18.3272 52.0231 18.6873 51.3724L18.8363 51.1134L18.8114 52.7306C18.7866 54.5436 18.8114 54.7205 19.0908 54.6889C19.2522 54.67 19.2833 54.6131 19.5502 53.8487C20.1586 52.1052 21.0464 49.9637 21.1581 49.9637C21.245 49.9637 21.3257 50.1216 21.5865 50.7976C22.0273 51.9157 22.3128 52.2568 22.9523 52.4274C23.4489 52.5601 24.2436 52.3895 24.7402 52.0421C24.883 51.941 25.0196 51.8589 25.0382 51.8589C25.063 51.8589 25.1934 51.9599 25.3362 52.08C25.6466 52.3516 25.9881 52.4716 26.1743 52.3705C26.2426 52.3326 26.3171 52.3011 26.3295 52.3011C26.3419 52.3011 26.373 53.4571 26.3916 54.8721C26.4412 58.6245 26.6772 60.8102 27.2793 63.1602C28.0305 66.104 29.3777 68.1065 30.9918 68.675C31.445 68.833 32.0162 68.8203 32.3824 68.6498C33.4751 68.1318 34.7726 65.8765 35.8776 62.5664C36.0701 61.9726 36.2501 61.5367 36.2687 61.5872C36.3494 61.8336 36.4612 65.2196 36.455 67.4306C36.455 70.1343 36.3991 70.8671 36.0514 72.977C35.5734 75.8765 34.965 77.4432 34.2573 77.6011C34.1021 77.6327 34.0276 77.6137 33.9158 77.5064C33.6241 77.2284 33.5744 76.464 33.7048 74.1899C33.7979 72.6864 33.7544 72.2947 33.5123 72.2947C33.3571 72.2947 33.3571 72.301 33.3447 72.8633C33.3385 73.1728 33.3012 74.0888 33.2578 74.8848C33.2081 75.9839 33.2081 76.4577 33.2578 76.8115C33.3944 77.7085 33.6861 78.0559 34.2387 77.9928C35.2506 77.8791 35.8838 76.4451 36.455 72.958C36.8088 70.8102 36.8337 70.4312 36.8337 67.1779C36.8337 64.9921 36.8026 63.6908 36.7157 62.2442L36.5978 60.2796L36.9765 58.8014C37.5041 56.7609 38.2677 53.1791 38.4912 51.7072C38.5037 51.6125 38.6464 51.543 39.0996 51.404C40.9124 50.8355 42.4396 50.0964 43.6564 49.1867C44.0661 48.8772 44.0848 48.8709 44.1655 48.9846C44.2151 49.0541 44.271 49.212 44.2896 49.3383C44.3517 49.711 44.389 49.7426 44.6621 49.591C45.1091 49.351 45.2705 49.1551 45.4692 48.6245L45.612 48.2265L45.6182 48.4792C45.6244 48.8835 45.792 49.5847 45.9658 49.9574C46.1955 50.4312 46.5991 50.8481 46.835 50.8481C47.0647 50.8418 47.2013 50.7281 47.5986 50.1659C47.9711 49.6479 48.1201 49.5342 48.2691 49.6605C48.3249 49.7047 48.6043 50.0648 48.8837 50.4501C49.5976 51.4356 50.0322 51.7325 50.6219 51.6378C50.9386 51.5935 51.249 51.3472 51.46 50.9871C51.6401 50.6776 51.8325 50.4691 51.9256 50.4691C51.9691 50.4691 52.2671 50.9997 52.5961 51.6504C53.4901 53.4318 53.9805 54.0067 54.6014 54.0067C55.5884 54.0067 56.2527 53.0023 57.1343 50.1975C57.8606 47.8601 58.6739 44.771 61.1075 35.1185C62.7651 28.5361 63.0941 27.1652 63.5224 25.0427C63.7459 23.9625 63.926 23.1286 63.926 23.1791C63.9322 23.2297 63.8639 23.8867 63.7832 24.6321C63.5287 26.9062 63.479 28.1065 63.5162 30.6965C63.5349 31.9978 63.5845 33.4887 63.6156 34.013C64.1619 42.0926 65.2297 47.9422 67.0735 52.9833C68.222 56.1166 69.3705 58.4287 70.6494 60.1595C71.711 61.5999 72.6049 62.4906 73.4865 62.9643C74.0949 63.2992 74.5667 63.4192 75.231 63.4192C75.9015 63.4192 76.3547 63.3055 77.0624 62.9517C77.7391 62.6106 78.0495 62.3579 77.9936 62.2063C77.9315 62.0421 77.7391 62.0673 77.4287 62.2884C76.7706 62.7496 75.9139 63.0402 75.231 63.0402C73.8838 63.0338 72.6981 62.181 71.0281 60.0079C69.3891 57.8664 67.4646 53.4824 66.2664 49.1362C65.1614 45.1438 64.3233 39.3383 63.9881 33.3181C63.8701 31.303 63.8887 27.6896 64.0129 26.2745C64.2178 24.0256 64.5902 21.1577 65.18 17.26C65.2545 16.7673 65.298 16.3188 65.2794 16.2682C65.2545 16.2114 65.1676 16.1671 65.0869 16.1671C64.8882 16.1671 64.9255 16.0345 64.2736 19.2941C63.9756 20.7534 63.5845 22.7117 63.3983 23.6529C62.7713 26.7925 62.6223 27.4242 61.5048 31.8968C56.9977 49.8437 56.3086 52.2189 55.2967 53.2613C54.8248 53.7477 54.4772 53.7287 53.993 53.2044C53.6888 52.8822 53.5522 52.6485 52.9127 51.3661C52.6023 50.7407 52.3043 50.2227 52.2112 50.1469C51.9443 49.9385 51.5718 50.0901 51.28 50.5449C51.1869 50.6902 51.0255 50.8987 50.9199 51.0124C50.7523 51.1956 50.6778 51.2271 50.4481 51.2271C50.0508 51.2271 49.7652 50.9871 49.1941 50.1911C48.6229 49.4015 48.418 49.2057 48.1387 49.2057C47.8779 49.2057 47.6731 49.3699 47.3316 49.8626C47.1764 50.0774 47.0026 50.3048 46.9343 50.3617C46.8163 50.4691 46.8039 50.4691 46.6425 50.2669C46.2017 49.7363 45.9907 48.9088 45.9907 47.7085C45.9907 47.4179 45.9596 47.1337 45.9224 47.0705C45.8727 46.982 45.91 46.8747 46.1086 46.5209C47.313 44.4299 48.1263 39.6416 47.9214 35.8955C47.791 33.6656 47.5365 32.2316 46.9467 30.4438C46.3073 28.5045 45.5871 27.1905 44.6683 26.2935C44.2462 25.8829 44.0227 25.7186 43.5571 25.4912C43.2405 25.3333 42.8742 25.188 42.75 25.1627C42.5452 25.1311 42.5141 25.0995 42.5141 24.9416C42.5141 24.7205 42.9301 20.7407 43.2591 17.8412C43.8985 12.1937 44.0103 10.9934 44.0227 9.62893C44.0289 8.22652 43.8613 7.60745 43.4081 7.32318C42.9673 7.04523 42.1106 7.22842 41.2849 7.78433C38.3609 9.76791 36.4177 16.5462 35.6231 27.5064C35.592 27.9928 35.561 28.435 35.561 28.4855C35.561 28.5424 35.2816 28.8961 34.934 29.2752C32.9536 31.4672 31.1532 34.1646 29.9054 36.7925C28.0926 40.6144 26.9255 45.2448 26.522 50.1596C26.3792 51.9726 26.1867 52.2821 25.5473 51.7388C25.1127 51.3724 25.063 51.3661 24.5788 51.663C24.0697 51.9789 23.8525 52.0484 23.3744 52.0484C22.7039 52.0484 22.3687 51.7578 22.0583 50.8923C21.7355 50.0016 21.5368 49.6479 21.3009 49.5342L21.0836 49.4268L20.8788 49.6668C20.6491 49.9385 20.1276 51.1198 19.6061 52.5348C19.4136 53.0654 19.2336 53.5203 19.2026 53.5518C19.1467 53.6024 19.2088 51.7072 19.3019 50.4691C19.3516 49.8121 19.4261 49.4141 19.6123 48.7319C20.0841 47.0389 20.736 43.7793 22.2073 35.7502C22.8157 32.4274 22.8716 31.8273 22.5674 31.6314C22.437 31.543 22.17 31.5809 22.0707 31.6946C21.6113 32.2126 20.8415 35.4343 20.1089 39.9511C19.6309 42.8949 19.2646 45.8513 18.9915 49.0162C18.9108 49.9637 18.4514 51.1956 18.0354 51.5935C17.8181 51.802 17.0235 51.8462 16.6945 51.6693C16.2785 51.4419 16.2785 51.4419 16.4089 51.2903C16.5889 51.0882 16.6138 50.3301 16.4524 50.0269C16.2847 49.7174 16.0612 49.6163 15.8315 49.7363C15.5584 49.8816 15.4218 50.2227 15.4653 50.6712L15.4963 51.0439L15.3039 50.9176C15.1921 50.8481 15.0866 50.7534 15.0617 50.7091C14.9003 50.4186 13.7518 46.9568 13.4973 45.9839C11.877 39.8374 10.3746 27.3358 10.7222 22.9896C10.9333 20.4312 11.7776 15.6997 13.9877 4.76475C14.6147 1.65672 14.8507 0.26696 14.7886 0.0963974C14.7389 -0.0362625 14.472 -0.0299454 14.3975 0.102715ZM43.2715 7.7338C43.5385 8.00543 43.6005 8.37182 43.6005 9.6921C43.5943 11.1134 43.5819 11.3093 42.9487 17.02C42.6755 19.452 42.3837 22.1368 42.2968 22.9896C42.2099 23.8424 42.1292 24.651 42.1106 24.7963L42.0733 25.0553L41.5332 25.0932C39.9936 25.2006 38.4478 26.0029 36.5729 27.6643C36.0514 28.1254 35.9956 28.1633 35.9956 28.0181C35.9956 27.9359 36.039 27.3295 36.0887 26.6725C36.9268 16.0282 38.9506 9.45205 41.8623 7.91068C42.5576 7.54428 43.0294 7.48111 43.2715 7.7338ZM42.0175 25.6239C42.0175 25.8829 41.5456 30.5639 41.3656 32.1494C41.0242 35.0869 40.7448 36.8431 39.9688 40.9934C39.3666 44.2088 39.1369 45.4849 38.6961 48.1633C38.274 50.7281 38.1932 51.164 38.125 51.2271C38.0629 51.2903 36.7468 51.5872 36.2936 51.6441L35.9583 51.682L35.8838 50.6586C35.6976 48.1886 35.6603 46.3314 35.6541 40.4565C35.6541 34.6321 35.6852 33.1728 35.8776 29.9069L35.9397 28.833L36.3867 28.3908C38.1808 26.6157 40.2109 25.5038 41.7567 25.4596C42.005 25.4533 42.0175 25.4659 42.0175 25.6239ZM43.1163 25.7186C43.8427 25.9903 44.6683 26.7357 45.2643 27.6517C46.121 28.9593 47.0026 31.5367 47.2882 33.5898C47.8159 37.3042 47.5055 41.3219 46.4439 44.6889C46.0403 45.965 45.5623 46.7925 44.6932 47.7085C44.2027 48.2265 44.1593 48.2581 43.9668 48.2202C43.7123 48.176 43.6378 48.2139 42.8618 48.8582C42.2223 49.3825 41.8498 49.6479 41.7443 49.6479C41.6636 49.6479 41.7319 49.2309 41.9243 48.6119C42.0733 48.1254 42.0858 48.0433 42.005 47.9675C41.8436 47.8033 41.7133 47.9359 41.5581 48.4413C41.3221 49.2057 41.2414 49.6921 41.3284 49.8753C41.3656 49.9637 41.3966 50.0395 41.3966 50.0522C41.3966 50.1596 38.7085 51.1703 38.6402 51.0945C38.5906 51.0376 39.6397 44.9353 40.3351 41.2145C41.347 35.8134 41.6574 33.6024 42.1727 28.2644C42.452 25.3206 42.421 25.5102 42.6259 25.5544C42.719 25.5797 42.9425 25.6491 43.1163 25.7186ZM35.443 30.6144C35.2754 33.6782 35.2258 35.8386 35.2258 40.2985C35.2258 45.1122 35.3065 48.3023 35.4741 50.4944C35.5238 51.1513 35.5486 51.7009 35.53 51.7262C35.443 51.8083 34.338 51.7515 33.9779 51.6441C33.6489 51.543 33.5434 51.4672 32.9784 50.8797C32.2769 50.1659 31.9603 49.9764 31.563 50.0522C31.2091 50.1216 31.0166 50.4312 30.6566 51.4988C30.4827 52.0168 30.2841 52.5285 30.2158 52.6232C30.0295 52.8949 29.7626 52.8696 29.0611 52.5222C28.4154 52.2 27.8567 51.7136 27.3849 51.0629C27.2235 50.8418 27.0434 50.646 26.9814 50.6207C26.882 50.5891 26.8696 50.5386 26.8944 50.3238C26.9131 50.1785 26.9441 49.8563 26.9627 49.6163C27.149 47.3484 27.7263 44.2657 28.3906 41.9726C29.7564 37.2789 31.7306 33.6213 34.8719 29.9827C35.1885 29.61 35.4679 29.3194 35.4803 29.332C35.4989 29.3447 35.4803 29.9258 35.443 30.6144ZM22.319 32.5537C22.2942 32.8443 22.1638 33.7161 22.0273 34.4931C21.5741 37.0326 20.171 44.4741 19.9165 45.6681C19.7799 46.3061 19.6682 46.862 19.6682 46.8936C19.6682 46.9252 19.6495 46.9378 19.6309 46.9189C19.5813 46.862 19.8234 44.6889 20.1089 42.6674C20.736 38.2012 21.5306 34.1457 22.0956 32.5727C22.2011 32.2695 22.3004 32.0231 22.319 32.0231C22.3377 32.0231 22.3377 32.2632 22.319 32.5537ZM45.2146 48.018C45.1402 48.4666 44.836 49.0793 44.687 49.0793C44.6621 49.0793 44.6 48.9656 44.5442 48.8203L44.4448 48.5676L44.8297 48.1697C45.0408 47.9486 45.2271 47.7654 45.2333 47.759C45.2457 47.759 45.2395 47.8728 45.2146 48.018ZM16.1233 50.2859C16.2164 50.5575 16.2102 50.8608 16.1109 50.9997C16.0302 51.1071 16.0178 51.1008 15.9247 50.8923C15.8005 50.6333 15.7943 50.4691 15.8936 50.248C15.9867 50.0395 16.0426 50.0458 16.1233 50.2859ZM32.0969 50.6144C32.221 50.6902 32.5066 50.9618 32.7363 51.2145C32.966 51.4672 33.2702 51.7451 33.413 51.8273C33.7855 52.0484 34.4373 52.1873 35.0581 52.1684L35.592 52.1558L35.7286 53.9814C35.8031 54.9858 35.9397 56.8052 36.0266 58.0244L36.1818 60.248L35.9397 61.0566C35.3623 62.9517 34.8843 64.2404 34.2573 65.5354C33.3633 67.399 32.4818 68.4034 31.7306 68.4097C31.4388 68.4097 30.818 68.1949 30.4703 67.9675C30.0233 67.6769 29.2411 66.8052 28.8997 66.205C27.6518 64.0572 27 60.9555 26.7951 56.1545C26.7206 54.3857 26.7765 51.2966 26.8882 51.1829C26.9193 51.1577 27 51.2208 27.0745 51.3219C27.3352 51.6946 27.9622 52.32 28.3285 52.5727C28.7631 52.8759 29.6136 53.2486 29.8806 53.2486C30.1475 53.2486 30.4393 53.0465 30.6193 52.7306C30.7 52.579 30.8863 52.1052 31.0229 51.6693C31.4202 50.4249 31.5692 50.2796 32.0969 50.6144ZM37.8828 52.8191C37.4545 55.0743 36.5791 58.9846 36.5171 58.9151C36.486 58.8835 35.9894 52.1558 36.0204 52.1305C36.0266 52.1179 36.2873 52.0673 36.5915 52.0168C36.8957 51.9599 37.2993 51.8778 37.4855 51.8336C38.1498 51.663 38.1188 51.5746 37.8828 52.8191Z" stroke="white" stroke-width="2" mask="url(#path-1-inside-1_42_426)"/>
</svg>
