<svg width="270" height="76" viewBox="0 0 270 76" fill="none" xmlns="http://www.w3.org/2000/svg">
<path d="M138.368 33.6219C138.028 32.1914 137.426 30.9102 136.564 29.783C135.698 28.6558 134.423 27.7278 132.738 27.002C131.052 26.2761 129.192 25.914 127.156 25.914C123.466 25.7057 117.477 27.1015 115.668 29.9415V26.6926H107.1V61.2365H116.324V45.5927C116.324 41.7327 116.56 39.086 117.031 37.6554C117.5 36.2234 118.371 35.0751 119.641 34.2074C120.91 33.3397 122.343 32.9051 123.94 32.9051C125.187 32.9051 126.255 33.2115 127.141 33.8166C128.027 34.4232 128.668 35.2758 129.061 36.3698C129.456 37.4668 129.652 39.8782 129.652 43.6069V61.2365H138.876V39.7695C138.876 37.1016 138.707 35.0524 138.368 33.6219ZM94.4166 26.0452C91.6876 26.3908 89.079 28.5728 87.9369 29.9626V26.6941H79.3693V61.238H88.5932V50.5694C88.5932 44.6919 88.8506 40.8334 89.3653 38.9894C89.8785 37.1454 90.5851 35.8733 91.4821 35.1671C92.379 34.4624 93.4739 34.1093 94.7653 34.1093C96.0993 34.1093 97.543 34.6073 99.0978 35.6047L101.955 27.6357C100.007 26.4874 97.9816 25.914 95.8816 25.914C95.3745 25.914 94.8872 25.9592 94.4166 26.0452ZM56.7962 25.9125C53.3819 25.9125 50.2905 26.6594 47.5235 28.1578C44.7535 29.6517 42.6154 31.8202 41.1047 34.6616C39.5956 37.503 38.8402 40.441 38.8402 43.4771C38.8402 47.4458 39.5956 50.8124 41.1047 53.5753C42.6154 56.3428 44.8189 58.4403 47.72 59.8693C50.6195 61.2999 53.6667 62.0181 56.8616 62.0181C62.0256 62.0181 66.3094 60.2994 69.7129 56.8619C73.1165 53.4244 74.8175 49.0936 74.8175 43.8649C74.8175 38.6846 73.1333 34.396 69.7632 31.0023C66.3916 27.6101 62.0698 25.9125 56.7962 25.9125ZM62.886 51.837C61.255 53.6583 59.2358 54.5697 56.8281 54.5697C54.4205 54.5697 52.3966 53.6583 50.7565 51.837C49.1149 50.0141 48.2941 47.39 48.2941 43.9645C48.2941 40.5391 49.1149 37.9135 50.7565 36.0921C52.3966 34.2723 54.4205 33.3608 56.8281 33.3608C59.2358 33.3608 61.255 34.2723 62.886 36.0921C64.5155 37.9135 65.3317 40.518 65.3317 43.8997C65.3317 47.3703 64.5155 50.0141 62.886 51.837ZM27.1463 14.2676C25.3524 13.7892 21.5011 13.5508 15.5924 13.5508H0V61.2365H9.71577V43.2493H16.0508C20.4503 43.2493 23.8097 43.0214 26.129 42.5657C27.8377 42.1975 29.5158 41.443 31.1681 40.3052C32.8204 39.1675 34.1819 37.6011 35.2555 35.6047C36.3275 33.6113 36.8636 31.1487 36.8636 28.2212C36.8636 24.4261 35.9331 21.3312 34.0737 18.9334C32.2128 16.5386 29.9042 14.9813 27.1463 14.2676ZM25.7514 32.0601C25.0189 33.1239 24.0077 33.9041 22.7163 34.4021C21.425 34.9 18.862 35.149 15.0336 35.149H9.71577V21.6179H14.4107C17.9117 21.6179 20.2432 21.7265 21.4021 21.9438C22.9783 22.226 24.2803 22.9307 25.3097 24.0579C26.3361 25.1851 26.8524 26.6156 26.8524 28.351C26.8524 29.7604 26.4839 30.9978 25.7514 32.0601Z" fill="white"/>
<path d="M264.375 0.28125H154.545C151.128 0.661516 149.249 2.73186 148.917 6.51038V69.0506C149.244 72.8246 151.12 74.8874 154.515 75.2812H264.4C267.796 74.8874 269.671 72.8231 270 69.0506V6.51038C269.669 2.73186 267.789 0.661516 264.375 0.28125Z" fill="#F7971D"/>
<path d="M261.757 29.5083C259.725 27.4603 256.996 26.1454 254.022 25.541C253.17 25.335 252.198 25.1881 251.115 25.1442C247.184 24.8185 242.133 26.253 239.786 28.051L240.355 13.3516H230.794V58.8618H239.676V56.3548C241.723 57.859 245.01 59.6055 250.018 59.6055C250.214 59.6055 250.4 59.604 250.581 59.601C250.71 59.604 250.841 59.6055 250.971 59.6055C255.168 59.6055 258.736 58.0847 261.671 55.043C264.608 51.9983 266.077 47.666 266.077 42.0371C266.077 36.5929 264.636 32.4182 261.757 29.5083ZM254.05 50.2472C252.566 51.8923 250.768 52.7133 248.658 52.7133C245.912 52.7133 243.712 51.5545 242.057 49.2368C240.878 47.6024 240.287 45.0788 240.287 41.6629C240.287 38.3516 241.048 35.884 242.567 34.2602C244.087 32.6363 245.992 31.8229 248.283 31.8229C250.62 31.8229 252.536 32.656 254.034 34.3207C255.53 35.987 256.28 38.7045 256.28 42.4688C256.28 46.0103 255.536 48.6006 254.05 50.2472ZM215.385 39.7997C215.385 44.5183 215.148 47.4827 214.672 48.6945C214.195 49.9049 213.31 50.9198 212.017 51.7347C210.725 52.5542 209.261 52.9617 207.629 52.9617C206.199 52.9617 205.019 52.6572 204.089 52.0468C203.16 51.4363 202.517 50.6077 202.167 49.5625C201.815 48.5173 201.64 45.6786 201.64 41.0403V25.8925H192.081V46.7541C192.081 49.8579 192.511 52.2891 193.373 54.0493C194.234 55.808 195.629 57.1743 197.556 58.1468C199.486 59.1193 201.662 59.6055 204.089 59.6055C204.453 59.6055 204.813 59.5934 205.17 59.5707C205.187 59.5707 205.188 59.5707 205.198 59.5677C211.283 59.4071 214.452 56.8895 216.066 55.2293V58.8603H224.945V25.8925H215.385V39.7997ZM184.19 29.122C183.293 27.9647 181.962 27.0119 180.194 26.2666C178.593 25.5925 176.818 25.2275 174.866 25.1623C174.833 25.1608 174.803 25.1578 174.77 25.1563C170.74 24.9609 165.587 26.0334 163.181 28.145V13.3516H153.622V58.8603H163.181V42.3476C163.181 39.574 163.472 37.4776 164.05 36.0612C164.629 34.6419 165.541 33.5815 166.789 32.8772C168.036 32.1758 169.452 31.8229 171.043 31.8229C172.424 31.8229 173.578 32.097 174.494 32.6454C175.412 33.1937 176.055 33.9345 176.417 34.8646C176.779 35.7977 176.961 37.9896 176.961 41.4448V58.8603H186.521V39.521C186.521 36.5626 186.355 34.3783 186.026 32.9726C185.699 31.5623 185.085 30.2808 184.19 29.122Z" fill="black"/>
</svg>
