<svg width="220" height="76" viewBox="0 0 220 76" fill="none" xmlns="http://www.w3.org/2000/svg">
<path d="M104.963 0.28125C104.963 0.28125 102.488 0.339153 101.053 0.312065C100.994 0.984609 100.302 7.07902 99.7078 11.9814C99.0241 16.5178 93.6058 50.1691 91.7699 60.2424C91.2868 63.2841 89.7929 71.8769 89.6517 72.7355C87.9273 72.9655 85.8908 73.1781 84.5604 73.2354C84.382 73.2421 84.0847 73.3068 83.9435 73.3068V75.0515C84.107 75.044 84.9692 75.1179 85.5786 75.0888C87.0428 75.0365 91.1976 74.8165 91.9855 74.8165C94.9733 74.8165 96.9652 75.0373 99.7301 75.0988C99.7673 75.0988 100.525 75.0955 100.86 75.0481V73.2852C100.629 73.2852 100.325 73.2769 100.146 73.2769C99.3659 73.3043 96.4896 73.0577 95.0328 72.836C95.2037 71.6834 97.7457 54.2554 98.9646 47.286C101.284 34.386 102.889 25.2435 102.889 25.2435L103.32 26.3786L121.641 75.1652L124.986 75.1843C124.986 75.1843 126.896 69.9014 129.163 63.9758C129.222 63.8355 129.386 63.4112 129.616 62.805C131.995 56.6518 143.783 25.4237 143.783 25.4237C143.783 25.4237 143.894 25.9858 144.08 26.9914C145.202 33.1122 149 55.1704 149.81 60.4924C150.189 63.2301 150.546 66.0069 150.754 67.6337C151.059 69.9371 151.26 72.1916 151.26 72.8393C150.888 72.8584 147.157 73.2354 145.745 73.3035C145.544 73.296 145.165 73.3168 145.143 73.3209V75.0955C145.648 75.0955 146.139 75.1204 146.629 75.1079C149.513 75.0465 152.285 74.794 155.169 74.7957C158.41 74.799 163.665 75.1154 167.032 75.1395C167.411 75.1395 168.087 75.1021 168.087 75.1021V73.3093C167.894 73.3077 167.046 73.2612 166.734 73.2338C165.225 73.1017 162.683 72.8385 162.037 72.7903C162.037 72.7903 161.621 70.2137 161.071 67.2376C158.871 55.3324 152.605 19.1451 151.646 10.2409C151.319 7.18049 150.39 0.308744 150.39 0.308744L146.622 0.307432C146.622 0.307432 144.697 6.47825 142.943 12.1047C141.746 15.9493 140.118 20.6958 138.877 24.3354C132.753 42.3181 125.885 59.0753 125.885 59.0753C125.885 59.0753 111.288 20.1619 110.515 17.9115C109.734 15.6604 104.963 0.28125 104.963 0.28125ZM0.0304733 0.297467L0.0624331 4.41043L0 14.4265L0.971206 14.3958L1.07281 5.48744C1.07281 5.48719 6.39827 5.43596 7.08705 5.43695L17.0176 5.44177L23.4267 5.47748L23.4371 67.4298L23.4386 72.7808L23.3033 72.8016C22.45 72.8755 19.1671 73.0997 17.8337 73.1536C17.5349 73.1644 17.3439 73.1727 17.3112 73.1686L17.3172 74.9813C17.558 74.9946 18.2068 75.012 18.2923 75.0087C21.4467 74.963 25.7151 74.6566 28.7417 74.66C31.8165 74.6616 36.1437 74.9954 38.8216 75.0303C39.087 75.032 39.4014 75.0029 39.6563 75.0029V73.3031L39.3241 73.3064C38.4708 73.3023 33.7519 72.9627 33.2636 72.8912C33.2435 72.06 33.1558 68.0476 33.1558 67.9588L33.1789 5.47083L38.0583 5.45638L50.7895 5.4661L55.0386 5.53095C55.0669 5.87016 55.2817 10.3825 55.2779 10.5054C55.2683 10.8334 55.437 14.1948 55.4303 15.0219L56.4374 15.0352L56.3653 4.90451L56.4114 0.347539C52.6699 0.461302 43.1347 0.60446 28.3366 0.595741C15.6456 0.587022 3.41524 0.468277 0.0304733 0.297467ZM59.3018 0.313685L59.3174 2.08805C59.8198 2.11852 62.7735 2.41048 63.4915 2.44968C64.0645 2.52807 64.8642 2.60828 65.4365 2.67023C65.4365 3.23829 65.4455 7.15828 65.4536 8.70536C65.5495 23.3691 65.4678 55.7773 65.4291 67.244C65.4172 70.5597 65.409 72.6963 65.409 72.6963C65.0471 72.8175 64.2325 72.8632 63.3517 72.9296C62.5988 72.9869 59.9008 73.2402 59.2988 73.2543V75.0288C59.5485 75.0288 60.0064 75.0878 60.2672 75.0853C63.3213 75.0861 67.5674 74.6626 70.6958 74.6651C73.8576 74.6676 78.0792 75.0978 80.5691 75.0986L80.5617 75.1003C80.7772 75.1036 81.2901 75.0405 81.5056 75.0413V73.2676H81.2901C81.1935 73.2443 77.9826 73.0932 77.2022 73.0027C76.7934 72.9736 75.0245 72.8026 75.0022 72.737C74.9948 72.7021 74.9873 72.1715 74.9873 71.2871C74.9948 70.4476 74.9948 69.0517 74.9948 67.5388C75.0022 55.9724 75.0319 21.6203 75.0393 8.48946C75.0393 5.95173 75.0468 3.88981 75.0468 2.78374C75.738 2.73491 78.5624 2.405 79.5732 2.30536C79.6178 2.30046 80.9556 2.21443 81.5056 2.17723V0.328299C78.0495 0.326888 73.4763 0.628649 70.1034 0.626739C66.576 0.624331 62.2302 0.315138 59.3018 0.313685ZM219.249 0.363981C219.249 0.363981 218.885 0.365725 218.209 0.367219C215.897 0.378347 209.981 0.426841 203.061 0.469357C198.81 0.496925 195.488 0.53504 191.11 0.532632C188.04 0.572822 183.744 0.705019 181.091 0.699705C176.854 0.691982 173.398 0.400269 171.518 0.39155C170.626 0.387149 170.128 0.424682 169.883 0.407742C169.897 0.432903 169.897 2.15935 169.897 2.15935C170.061 2.19124 170.388 2.23193 170.693 2.2242C171.756 2.30409 173.748 2.48386 174.758 2.63292C174.959 2.67402 175.301 2.73705 176.252 2.85513C176.245 3.24798 176.297 7.69352 176.289 10.3644C176.289 12.839 176.267 68.0511 176.267 68.0511C176.267 68.1408 176.156 72.4912 176.156 72.8424C174.476 73.1638 171.25 73.3614 170.15 73.3664H169.823V75.1226C169.979 75.1218 170.7 75.1534 171.109 75.1534C172.885 75.1525 177.464 74.837 182.139 74.8337C185.417 74.8304 189.021 74.9674 192.671 75.0255C197.167 75.0952 201.716 75.0986 205.804 75.1633C212.545 75.2696 218.008 75.2788 219.784 75.2812C219.784 75.2812 220 61.3117 220 60.1857L219.026 60.1982C219.026 61.3865 218.632 65.8116 218.618 66.005C218.491 67.6708 218.357 69.4163 218.253 70.2765C218.253 70.2765 217.778 70.3189 217.547 70.3139C216.44 70.2906 212.902 70.4343 212.828 70.4343L197.048 70.4418L185.967 70.2342L185.892 66.7997L185.885 40.1345C187.862 40.0597 190.879 39.9427 192.715 39.9468C194.276 39.9501 197.955 39.8521 200.014 39.8571C205.016 39.8671 209.461 39.9028 209.817 39.9144C210.642 39.941 212.174 39.9975 212.753 40.0373C212.776 40.2723 212.842 40.6394 212.85 40.7432C213.147 42.7851 213.311 44.1992 213.511 46.2037C213.541 46.3839 213.556 46.5583 213.578 46.7227H214.715C214.715 46.7227 214.745 46.0061 214.73 45.5602C214.708 43.9883 214.619 40.8528 214.619 37.3776C214.611 34.9687 214.738 31.2859 214.753 29.5147C214.76 29.0356 214.708 28.6951 214.708 28.5581L213.668 28.5805C213.66 28.9633 213.578 29.528 213.578 29.528C213.489 30.8483 213.155 32.5357 212.887 34.316C212.813 34.5377 212.761 34.8474 212.761 34.8474C212.642 34.8923 209.379 35.0866 209.089 35.0841C208.978 35.0833 204.228 35.2319 204.146 35.2319L185.892 35.1555L185.922 5.75167C185.922 5.75175 188.241 5.66024 188.888 5.66415C191.519 5.66464 195.8 5.63791 200.163 5.64471C206.547 5.65335 212.746 5.69778 212.761 5.70791C212.798 5.72825 214.686 5.75756 214.723 5.79385C214.768 5.83354 217.131 5.91251 217.711 5.93336C217.711 5.93336 217.755 6.15225 217.785 6.42801C218.045 9.52825 218.261 13.2102 218.357 14.5147L218.365 15.037L219.339 15.0337C219.339 13.1246 219.249 7.27824 219.234 3.55863C219.227 2.36396 219.249 1.39108 219.249 0.837548V0.363981Z" fill="#E90606"/>
</svg>
