<svg width="30" height="16" viewBox="0 0 30 16" fill="none" xmlns="http://www.w3.org/2000/svg">
<g clip-path="url(#clip0_509_811)">
<path d="M30 0.136719H0V15.9262H30V0.136719Z" fill="#B22234"/>
<path d="M0 1.95703H30H0ZM30 4.38618H0H30ZM0 6.81533H30H0ZM30 9.24448H0H30ZM0 11.6736H30H0ZM30 14.1028H0H30Z" fill="black"/>
<path d="M0 1.95703H30M30 4.38618H0M0 6.81533H30M30 9.24448H0M0 11.6736H30M30 14.1028H0" stroke="white" stroke-width="1.5"/>
<path d="M12 0.136719H0V8.63874H12V0.136719Z" fill="#3C3B6E"/>
<path d="M0.999894 0.5L1.28546 1.37887L0.537842 0.8357H1.46195L0.71433 1.37887L0.999894 0.5Z" fill="white"/>
<path d="M0.999894 2.19922L1.28546 3.07809L0.537842 2.53492H1.46195L0.71433 3.07809L0.999894 2.19922Z" fill="white"/>
<path d="M0.999894 3.90234L1.28546 4.78122L0.537842 4.23804H1.46195L0.71433 4.78122L0.999894 3.90234Z" fill="white"/>
<path d="M0.999894 5.60156L1.28546 6.48044L0.537842 5.93726H1.46195L0.71433 6.48044L0.999894 5.60156Z" fill="white"/>
<path d="M0.999894 7.30078L1.28546 8.17966L0.537842 7.63648H1.46195L0.71433 8.17966L0.999894 7.30078Z" fill="white"/>
<path d="M1.99989 1.35156L2.28546 2.23044L1.53784 1.68726H2.46195L1.71433 2.23044L1.99989 1.35156Z" fill="white"/>
<path d="M1.99989 3.05078L2.28546 3.92966L1.53784 3.38648H2.46195L1.71433 3.92966L1.99989 3.05078Z" fill="white"/>
<path d="M1.99989 4.75391L2.28546 5.63278L1.53784 5.08961H2.46195L1.71433 5.63278L1.99989 4.75391Z" fill="white"/>
<path d="M1.99989 6.45312L2.28546 7.332L1.53784 6.78883H2.46195L1.71433 7.332L1.99989 6.45312Z" fill="white"/>
<path d="M2.99989 0.5L3.28546 1.37887L2.53784 0.8357H3.46195L2.71433 1.37887L2.99989 0.5Z" fill="white"/>
<path d="M2.99989 2.19922L3.28546 3.07809L2.53784 2.53492H3.46195L2.71433 3.07809L2.99989 2.19922Z" fill="white"/>
<path d="M2.99989 3.90234L3.28546 4.78122L2.53784 4.23804H3.46195L2.71433 4.78122L2.99989 3.90234Z" fill="white"/>
<path d="M2.99989 5.60156L3.28546 6.48044L2.53784 5.93726H3.46195L2.71433 6.48044L2.99989 5.60156Z" fill="white"/>
<path d="M2.99989 7.30078L3.28546 8.17966L2.53784 7.63648H3.46195L2.71433 8.17966L2.99989 7.30078Z" fill="white"/>
<path d="M3.99989 1.35156L4.28546 2.23044L3.53784 1.68726H4.46195L3.71433 2.23044L3.99989 1.35156Z" fill="white"/>
<path d="M3.99989 3.05078L4.28546 3.92966L3.53784 3.38648H4.46195L3.71433 3.92966L3.99989 3.05078Z" fill="white"/>
<path d="M3.99989 4.75391L4.28546 5.63278L3.53784 5.08961H4.46195L3.71433 5.63278L3.99989 4.75391Z" fill="white"/>
<path d="M3.99989 6.45312L4.28546 7.332L3.53784 6.78883H4.46195L3.71433 7.332L3.99989 6.45312Z" fill="white"/>
<path d="M4.99989 0.5L5.28546 1.37887L4.53784 0.8357H5.46195L4.71433 1.37887L4.99989 0.5Z" fill="white"/>
<path d="M4.99989 2.19922L5.28546 3.07809L4.53784 2.53492H5.46195L4.71433 3.07809L4.99989 2.19922Z" fill="white"/>
<path d="M4.99989 3.90234L5.28546 4.78122L4.53784 4.23804H5.46195L4.71433 4.78122L4.99989 3.90234Z" fill="white"/>
<path d="M4.99989 5.60156L5.28546 6.48044L4.53784 5.93726H5.46195L4.71433 6.48044L4.99989 5.60156Z" fill="white"/>
<path d="M4.99989 7.30078L5.28546 8.17966L4.53784 7.63648H5.46195L4.71433 8.17966L4.99989 7.30078Z" fill="white"/>
<path d="M5.99989 1.35156L6.28546 2.23044L5.53784 1.68726H6.46195L5.71433 2.23044L5.99989 1.35156Z" fill="white"/>
<path d="M5.99989 3.05078L6.28546 3.92966L5.53784 3.38648H6.46195L5.71433 3.92966L5.99989 3.05078Z" fill="white"/>
<path d="M5.99989 4.75391L6.28546 5.63278L5.53784 5.08961H6.46195L5.71433 5.63278L5.99989 4.75391Z" fill="white"/>
<path d="M5.99989 6.45312L6.28546 7.332L5.53784 6.78883H6.46195L5.71433 7.332L5.99989 6.45312Z" fill="white"/>
<path d="M6.99989 0.5L7.28546 1.37887L6.53784 0.8357H7.46195L6.71433 1.37887L6.99989 0.5Z" fill="white"/>
<path d="M6.99989 2.19922L7.28546 3.07809L6.53784 2.53492H7.46195L6.71433 3.07809L6.99989 2.19922Z" fill="white"/>
<path d="M6.99989 3.90234L7.28546 4.78122L6.53784 4.23804H7.46195L6.71433 4.78122L6.99989 3.90234Z" fill="white"/>
<path d="M6.99989 5.60156L7.28546 6.48044L6.53784 5.93726H7.46195L6.71433 6.48044L6.99989 5.60156Z" fill="white"/>
<path d="M6.99989 7.30078L7.28546 8.17966L6.53784 7.63648H7.46195L6.71433 8.17966L6.99989 7.30078Z" fill="white"/>
<path d="M7.99989 1.35156L8.28546 2.23044L7.53784 1.68726H8.46195L7.71433 2.23044L7.99989 1.35156Z" fill="white"/>
<path d="M7.99989 3.05078L8.28546 3.92966L7.53784 3.38648H8.46195L7.71433 3.92966L7.99989 3.05078Z" fill="white"/>
<path d="M7.99989 4.75391L8.28546 5.63278L7.53784 5.08961H8.46195L7.71433 5.63278L7.99989 4.75391Z" fill="white"/>
<path d="M7.99989 6.45312L8.28546 7.332L7.53784 6.78883H8.46195L7.71433 7.332L7.99989 6.45312Z" fill="white"/>
<path d="M8.99989 0.5L9.28546 1.37887L8.53784 0.8357H9.46195L8.71433 1.37887L8.99989 0.5Z" fill="white"/>
<path d="M8.99989 2.19922L9.28546 3.07809L8.53784 2.53492H9.46195L8.71433 3.07809L8.99989 2.19922Z" fill="white"/>
<path d="M8.99989 3.90234L9.28546 4.78122L8.53784 4.23804H9.46195L8.71433 4.78122L8.99989 3.90234Z" fill="white"/>
<path d="M8.99989 5.60156L9.28546 6.48044L8.53784 5.93726H9.46195L8.71433 6.48044L8.99989 5.60156Z" fill="white"/>
<path d="M8.99989 7.30078L9.28546 8.17966L8.53784 7.63648H9.46195L8.71433 8.17966L8.99989 7.30078Z" fill="white"/>
<path d="M9.99989 1.35156L10.2855 2.23044L9.53784 1.68726H10.4619L9.71433 2.23044L9.99989 1.35156Z" fill="white"/>
<path d="M9.99989 3.05078L10.2855 3.92966L9.53784 3.38648H10.4619L9.71433 3.92966L9.99989 3.05078Z" fill="white"/>
<path d="M9.99989 4.75391L10.2855 5.63278L9.53784 5.08961H10.4619L9.71433 5.63278L9.99989 4.75391Z" fill="white"/>
<path d="M9.99989 6.45312L10.2855 7.332L9.53784 6.78883H10.4619L9.71433 7.332L9.99989 6.45312Z" fill="white"/>
<path d="M10.9999 0.5L11.2855 1.37887L10.5378 0.8357H11.4619L10.7143 1.37887L10.9999 0.5Z" fill="white"/>
<path d="M10.9999 2.19922L11.2855 3.07809L10.5378 2.53492H11.4619L10.7143 3.07809L10.9999 2.19922Z" fill="white"/>
<path d="M10.9999 3.90234L11.2855 4.78122L10.5378 4.23804H11.4619L10.7143 4.78122L10.9999 3.90234Z" fill="white"/>
<path d="M10.9999 5.60156L11.2855 6.48044L10.5378 5.93726H11.4619L10.7143 6.48044L10.9999 5.60156Z" fill="white"/>
<path d="M10.9999 7.30078L11.2855 8.17966L10.5378 7.63648H11.4619L10.7143 8.17966L10.9999 7.30078Z" fill="white"/>
</g>
<defs>
<clipPath id="clip0_509_811">
<rect width="30" height="15.7895" fill="white" transform="translate(0 0.136719)"/>
</clipPath>
</defs>
</svg>
