<svg width="12" height="13" viewBox="0 0 12 13" fill="none" xmlns="http://www.w3.org/2000/svg">
<g clip-path="url(#clip0_149_511)">
<path fill-rule="evenodd" clip-rule="evenodd" d="M11.625 6.80987C11.625 9.23237 10.095 11.2971 7.94775 12.0869L8.00025 12.0599C8.8755 11.3099 9.36075 9.83461 9.50025 9.18436C9.66075 8.43436 9.7275 8.20936 9.12525 7.71436C8.89275 7.52461 8.6175 7.56738 8.34525 7.35738C8.16075 7.21488 8.07825 6.91487 7.89075 6.80987C7.44525 6.55712 7.0605 6.89236 6.42525 6.97711C6.13447 7.00984 5.84004 6.97836 5.56275 6.88487C5.5575 6.88487 5.5575 6.88487 5.553 6.88187L5.49075 6.85938C5.36775 6.79787 5.433 6.70486 5.49525 6.58936H5.49075C5.55525 6.46186 5.55525 6.30737 5.45325 6.19262C5.31075 6.03212 5.04825 6.03212 4.85025 6.02462C4.77075 6.02237 4.69275 6.02462 4.6155 6.02762L4.61325 6.02462C4.58325 6.02462 4.55025 6.02762 4.52025 6.02762H4.4925C4.25025 6.03287 3.993 6.00212 3.82275 5.79212C3.6255 5.52737 3.60525 5.24237 3.8955 4.97462C4.1055 4.77962 4.54275 4.37462 5.25075 4.80962C5.703 5.08712 6.12525 5.30987 6.50025 5.18462C6.74775 5.10212 6.86025 4.95738 6.57075 4.53213C6.45547 4.37372 6.39874 4.1802 6.41025 3.98462C6.4605 3.40262 6.9255 3.35461 7.28325 3.08461C7.63275 2.81761 7.79325 2.37736 7.69275 1.99186C7.61325 1.68211 7.31025 1.33712 6.73275 1.23438C8.08656 1.41045 9.32993 2.07351 10.2304 3.09962C11.1309 4.12574 11.6262 5.44465 11.625 6.80987Z" fill="#65676B"/>
<path fill-rule="evenodd" clip-rule="evenodd" d="M7.58026 12.203C6.74183 12.4488 5.85768 12.4957 4.99793 12.3403C4.13817 12.1848 3.32646 11.8312 2.62718 11.3074C1.9279 10.7836 1.36028 10.1041 0.969347 9.32275C0.578415 8.5414 0.374921 7.67969 0.375004 6.80599C0.373858 5.8697 0.607075 4.94799 1.05339 4.12492C1.49971 3.30184 2.14493 2.60358 2.93025 2.09375C2.36918 2.55707 1.94132 3.16118 1.6905 3.84424C1.12575 5.50699 1.52775 6.9005 3.408 6.9005C4.03275 6.9005 4.458 7.32125 4.40775 8.68175C4.398 8.984 4.79776 10.0167 6.24526 10.0992C6.77026 10.1292 7.13325 10.889 7.24275 11.4043C7.28775 11.6218 7.33801 11.8918 7.43551 12.1318C7.44803 12.1583 7.46912 12.1798 7.49539 12.1929C7.52165 12.2059 7.55155 12.209 7.58026 12.203Z" fill="#65676B"/>
<path d="M12 6.80469C12 8.39599 11.3679 9.92211 10.2426 11.0473C9.11742 12.1726 7.5913 12.8047 6 12.8047C4.4087 12.8047 2.88258 12.1726 1.75736 11.0473C0.632142 9.92211 0 8.39599 0 6.80469C0 5.21339 0.632142 3.68726 1.75736 2.56204C2.88258 1.43682 4.4087 0.804688 6 0.804688C7.5913 0.804688 9.11742 1.43682 10.2426 2.56204C11.3679 3.68726 12 5.21339 12 6.80469ZM11.25 6.80469C11.25 5.4123 10.6969 4.07695 9.71231 3.09238C8.72774 2.10782 7.39239 1.55469 6 1.55469C4.60761 1.55469 3.27226 2.10782 2.28769 3.09238C1.30313 4.07695 0.75 5.4123 0.75 6.80469C0.75 8.19707 1.30313 9.53242 2.28769 10.517C3.27226 11.5016 4.60761 12.0547 6 12.0547C7.39239 12.0547 8.72774 11.5016 9.71231 10.517C10.6969 9.53242 11.25 8.19707 11.25 6.80469Z" fill="#65676B"/>
</g>
<defs>
<clipPath id="clip0_149_511">
<rect width="12" height="12" fill="white" transform="translate(0 0.804688)"/>
</clipPath>
</defs>
</svg>
